<svg width="223" height="60" viewBox="0 0 223 60" fill="none" xmlns="http://www.w3.org/2000/svg">
<rect width="60" height="60" rx="30" fill="#936EFE"/>
<path fill-rule="evenodd" clip-rule="evenodd" d="M31.1172 21.217C30.5071 20.9277 29.7994 20.9277 29.1893 21.217C28.7669 21.4173 28.4673 21.7965 28.2019 22.2251C27.935 22.656 27.6421 23.2416 27.2775 23.971L27.2775 23.971L27.2632 23.9996L26.9693 24.5874C26.7192 25.0875 26.6465 25.2186 26.5552 25.3142C26.461 25.4127 26.3481 25.4915 26.2231 25.5457C26.1019 25.5984 25.9537 25.6213 25.398 25.6831L25.1312 25.7127L25.0992 25.7163H25.0992C24.2231 25.8136 23.5233 25.8913 22.9935 25.9991C22.4709 26.1054 21.9839 26.2627 21.643 26.6105C21.1553 27.1082 20.9257 27.8037 21.0213 28.4939C21.0881 28.9763 21.3857 29.3927 21.7423 29.7892C22.1038 30.1912 22.6198 30.6704 23.2657 31.2702L23.2893 31.2921L23.571 31.5536C24.0603 32.008 24.1858 32.1365 24.256 32.2733C24.3286 32.4147 24.3673 32.5709 24.3689 32.7298C24.3706 32.8834 24.3184 33.0587 24.0944 33.6974L24.0838 33.7276L24.0838 33.7277C23.7531 34.67 23.4912 35.4164 23.3425 35.9971C23.1981 36.5611 23.1172 37.115 23.3055 37.5946C23.5704 38.2696 24.1445 38.7754 24.8474 38.9533C25.3455 39.0795 25.8801 38.9325 26.4166 38.7209C26.9675 38.5036 27.6649 38.1549 28.5444 37.7152L28.5732 37.7008L29.2569 37.3589C29.718 37.1283 29.8439 37.0717 29.9647 37.0489C30.0893 37.0256 30.2172 37.0256 30.3418 37.0489C30.4626 37.0717 30.5885 37.1283 31.0496 37.3589L31.7334 37.7008L31.7622 37.7152C32.6416 38.1549 33.3391 38.5036 33.8898 38.7209C34.4264 38.9325 34.961 39.0795 35.4591 38.9533C36.162 38.7754 36.7361 38.2696 37.0011 37.5946C37.1894 37.115 37.1084 36.5611 36.964 35.9971C36.8153 35.4164 36.5534 34.67 36.2227 33.7276V33.7275L36.2122 33.6974C35.9881 33.0587 35.936 32.8834 35.9375 32.7298C35.9393 32.5709 35.9779 32.4147 36.0505 32.2733C36.1208 32.1365 36.2462 32.008 36.7355 31.5536L37.0172 31.2921L37.0408 31.2701C37.6867 30.6703 38.2027 30.1912 38.5642 29.7892C38.9208 29.3927 39.2184 28.9763 39.2852 28.4939C39.3809 27.8037 39.1512 27.1082 38.6635 26.6105C38.3226 26.2627 37.8356 26.1054 37.3131 25.9991C36.7832 25.8913 36.0834 25.8136 35.2074 25.7163L35.1753 25.7127L34.9085 25.6831C34.3528 25.6213 34.2046 25.5984 34.0835 25.5457C33.9584 25.4915 33.8455 25.4127 33.7514 25.3142C33.6601 25.2186 33.5873 25.0875 33.3373 24.5874L33.0434 23.9996L33.029 23.971C32.6644 23.2416 32.3716 22.656 32.1047 22.2251C31.8392 21.7965 31.5397 21.4173 31.1172 21.217Z" fill="#FFCE31"/>
<path d="M82.008 26.288C80.232 26.288 78.808 25.768 77.736 24.728C76.68 23.688 76.152 22.304 76.152 20.576H78.48C78.48 21.696 78.8 22.576 79.44 23.216C80.08 23.856 80.952 24.176 82.056 24.176C83.224 24.176 84.16 23.824 84.864 23.12C85.568 22.4 85.92 21.448 85.92 20.264C85.92 19.128 85.576 18.2 84.888 17.48C84.2 16.744 83.264 16.376 82.08 16.376C81.36 16.376 80.68 16.528 80.04 16.832C79.4 17.136 78.88 17.544 78.48 18.056L76.488 17.552L78.6 8.648H87.288V10.808H80.304L79.152 15.416C80.08 14.712 81.2 14.36 82.512 14.36C84.256 14.36 85.656 14.904 86.712 15.992C87.784 17.08 88.32 18.472 88.32 20.168C88.32 21.976 87.736 23.448 86.568 24.584C85.4 25.72 83.88 26.288 82.008 26.288ZM96.7502 13.328C96.7502 11.84 97.2942 10.64 98.3822 9.728C99.4862 8.8 100.934 8.336 102.726 8.336C104.374 8.336 105.702 8.768 106.71 9.632C107.718 10.496 108.27 11.68 108.366 13.184H105.99C105.926 12.32 105.606 11.648 105.03 11.168C104.454 10.688 103.678 10.448 102.702 10.448C101.614 10.448 100.742 10.704 100.086 11.216C99.4302 11.728 99.1022 12.408 99.1022 13.256C99.1022 14.616 99.9102 15.488 101.526 15.872L104.382 16.544C107.23 17.2 108.654 18.744 108.654 21.176C108.654 22.728 108.094 23.968 106.974 24.896C105.87 25.824 104.39 26.288 102.534 26.288C100.758 26.288 99.3262 25.856 98.2382 24.992C97.1502 24.128 96.5742 22.952 96.5102 21.464H98.9102C98.9422 22.296 99.2782 22.96 99.9182 23.456C100.574 23.936 101.446 24.176 102.534 24.176C103.686 24.176 104.598 23.928 105.27 23.432C105.958 22.92 106.302 22.232 106.302 21.368C106.302 19.992 105.502 19.12 103.902 18.752L101.046 18.104C98.1822 17.448 96.7502 15.856 96.7502 13.328ZM114.538 26H112.282V16.16H109.978V14.264H112.282V10.592H114.538V14.264H116.842V16.16H114.538V26ZM122.158 26.288C120.91 26.288 119.926 25.968 119.206 25.328C118.502 24.672 118.15 23.808 118.15 22.736C118.15 21.664 118.526 20.808 119.278 20.168C120.046 19.512 121.126 19.128 122.518 19.016L126.214 18.728V18.392C126.214 16.616 125.294 15.728 123.454 15.728C122.51 15.728 121.774 15.928 121.246 16.328C120.734 16.728 120.478 17.28 120.478 17.984H118.51C118.51 16.768 118.966 15.792 119.878 15.056C120.806 14.304 122.03 13.928 123.55 13.928C125.054 13.928 126.238 14.328 127.102 15.128C127.982 15.928 128.422 17.096 128.422 18.632V26H126.502L126.262 24.104C125.958 24.776 125.43 25.312 124.678 25.712C123.942 26.096 123.102 26.288 122.158 26.288ZM122.806 24.536C123.878 24.536 124.718 24.216 125.326 23.576C125.934 22.92 126.238 22.04 126.238 20.936V20.312L123.238 20.552C121.366 20.728 120.43 21.432 120.43 22.664C120.43 23.272 120.638 23.736 121.054 24.056C121.47 24.376 122.054 24.536 122.806 24.536ZM138.266 14.168V16.232H137.258C136.186 16.232 135.338 16.544 134.714 17.168C134.106 17.792 133.802 18.664 133.802 19.784V26H131.546V14.288H133.658L133.802 16.064C134.042 15.44 134.45 14.944 135.026 14.576C135.602 14.208 136.282 14.024 137.066 14.024C137.418 14.024 137.818 14.072 138.266 14.168Z" fill="black"/>
<path d="M77.226 52V47.842H80.152L82.196 52H83.316L81.174 47.674C82.462 47.324 83.218 46.316 83.218 44.874C83.218 43.096 81.986 41.976 79.956 41.976H76.218V52H77.226ZM77.226 42.886H79.956C81.328 42.886 82.182 43.6 82.182 44.902C82.182 46.176 81.37 46.932 79.984 46.932H77.226V42.886ZM87.3129 52.168C88.9089 52.168 89.9589 51.398 90.3229 49.97H89.3989C89.1469 50.866 88.4329 51.342 87.3269 51.342C85.8709 51.342 85.0029 50.39 84.9329 48.738H90.3229V48.262C90.3229 46.344 89.0769 45.042 87.2429 45.042C85.3109 45.042 83.9949 46.498 83.9949 48.612C83.9949 50.74 85.3249 52.168 87.3129 52.168ZM87.2429 45.868C88.5169 45.868 89.3569 46.736 89.3569 48.038H84.9609C85.1289 46.708 85.9689 45.868 87.2429 45.868ZM93.745 52.168C94.893 52.168 95.817 51.664 96.237 50.81L96.363 52H97.175V47.618C97.175 45.826 96.027 45.042 94.459 45.042C92.793 45.042 91.673 45.924 91.673 47.296H92.555C92.555 46.386 93.255 45.854 94.431 45.854C95.425 45.854 96.223 46.274 96.223 47.604V47.828L93.983 48.01C92.401 48.136 91.449 48.92 91.449 50.166C91.449 51.356 92.303 52.168 93.745 52.168ZM93.969 51.384C93.045 51.384 92.429 50.964 92.429 50.138C92.429 49.382 92.947 48.822 94.221 48.71L96.223 48.556V48.92C96.223 50.39 95.397 51.384 93.969 51.384ZM101.773 52.168C102.907 52.168 103.859 51.664 104.335 50.614L104.433 52H105.273V41.794H104.307V46.512C103.831 45.532 102.935 45.042 101.815 45.042C99.7995 45.042 98.6375 46.582 98.6375 48.626C98.6375 50.656 99.7995 52.168 101.773 52.168ZM101.941 51.286C100.471 51.286 99.6175 50.166 99.6175 48.598C99.6175 47.044 100.471 45.91 101.941 45.91C103.425 45.91 104.293 47.044 104.293 48.598C104.293 50.166 103.425 51.286 101.941 51.286ZM120.314 46.988C120.314 43.936 118.354 41.794 115.54 41.794C112.74 41.794 110.766 43.95 110.766 46.988C110.766 50.026 112.726 52.168 115.54 52.168C118.34 52.168 120.314 50.026 120.314 46.988ZM119.278 46.988C119.278 49.48 117.752 51.202 115.54 51.202C113.328 51.202 111.816 49.494 111.816 46.988C111.816 44.482 113.328 42.774 115.54 42.774C117.752 42.774 119.278 44.482 119.278 46.988ZM126.692 45.224V48.822C126.692 50.432 125.922 51.3 124.62 51.3C123.542 51.3 122.828 50.726 122.828 49.116V45.21H121.848V49.424C121.848 51.076 122.716 52.168 124.312 52.168C125.376 52.168 126.314 51.636 126.692 50.852L126.818 52H127.658V45.224H126.692ZM133.212 45.14C132.974 45.084 132.792 45.07 132.582 45.07C131.63 45.07 130.916 45.546 130.65 46.274L130.58 45.224H129.67V52H130.636V48.136C130.636 46.848 131.434 46.008 132.68 46.008H133.212V45.14ZM137.987 44.58C137.987 45.952 138.813 46.848 140.381 47.226L142.075 47.646C143.153 47.898 143.657 48.486 143.657 49.382C143.657 50.53 142.719 51.244 141.249 51.244C139.877 51.244 138.953 50.558 138.897 49.508H137.861C137.987 51.146 139.303 52.168 141.249 52.168C143.321 52.168 144.665 51.062 144.665 49.326C144.665 47.968 143.853 47.072 142.285 46.694L140.563 46.274C139.513 46.008 138.995 45.448 138.995 44.566C138.995 43.432 139.919 42.704 141.333 42.704C142.593 42.704 143.363 43.348 143.475 44.482H144.497C144.343 42.802 143.153 41.794 141.347 41.794C139.331 41.794 137.987 42.9 137.987 44.58ZM151.028 45.224V48.822C151.028 50.432 150.258 51.3 148.956 51.3C147.878 51.3 147.164 50.726 147.164 49.116V45.21H146.184V49.424C146.184 51.076 147.052 52.168 148.648 52.168C149.712 52.168 150.65 51.636 151.028 50.852L151.154 52H151.994V45.224H151.028ZM153.393 48.626C153.393 50.754 154.695 52.168 156.613 52.168C158.153 52.168 159.357 51.258 159.679 49.872H158.699C158.433 50.74 157.621 51.3 156.613 51.3C155.241 51.3 154.345 50.222 154.345 48.612C154.345 46.946 155.311 45.896 156.683 45.896C157.621 45.896 158.433 46.414 158.685 47.352H159.651C159.385 45.952 158.237 45.042 156.669 45.042C154.695 45.042 153.393 46.498 153.393 48.626ZM160.667 48.626C160.667 50.754 161.969 52.168 163.887 52.168C165.427 52.168 166.631 51.258 166.953 49.872H165.973C165.707 50.74 164.895 51.3 163.887 51.3C162.515 51.3 161.619 50.222 161.619 48.612C161.619 46.946 162.585 45.896 163.957 45.896C164.895 45.896 165.707 46.414 165.959 47.352H166.925C166.659 45.952 165.511 45.042 163.943 45.042C161.969 45.042 160.667 46.498 160.667 48.626ZM171.258 52.168C172.854 52.168 173.904 51.398 174.268 49.97H173.344C173.092 50.866 172.378 51.342 171.272 51.342C169.816 51.342 168.948 50.39 168.878 48.738H174.268V48.262C174.268 46.344 173.022 45.042 171.188 45.042C169.256 45.042 167.94 46.498 167.94 48.612C167.94 50.74 169.27 52.168 171.258 52.168ZM171.188 45.868C172.462 45.868 173.302 46.736 173.302 48.038H168.906C169.074 46.708 169.914 45.868 171.188 45.868ZM175.239 50.096C175.239 51.356 176.191 52.168 177.717 52.168C179.257 52.168 180.293 51.37 180.293 50.152C180.293 49.172 179.761 48.626 178.585 48.332L177.423 48.038C176.681 47.856 176.317 47.492 176.317 46.974C176.317 46.246 176.849 45.84 177.801 45.84C178.711 45.84 179.257 46.302 179.285 47.086H180.223C180.181 45.826 179.257 45.042 177.829 45.042C176.373 45.042 175.379 45.798 175.379 46.988C175.379 47.912 175.953 48.528 177.129 48.822L178.291 49.116C179.089 49.312 179.369 49.634 179.369 50.194C179.369 50.922 178.753 51.37 177.703 51.37C176.751 51.37 176.163 50.88 176.163 50.096H175.239ZM181.309 50.096C181.309 51.356 182.261 52.168 183.787 52.168C185.327 52.168 186.363 51.37 186.363 50.152C186.363 49.172 185.831 48.626 184.655 48.332L183.493 48.038C182.751 47.856 182.387 47.492 182.387 46.974C182.387 46.246 182.919 45.84 183.871 45.84C184.781 45.84 185.327 46.302 185.355 47.086H186.293C186.251 45.826 185.327 45.042 183.899 45.042C182.443 45.042 181.449 45.798 181.449 46.988C181.449 47.912 182.023 48.528 183.199 48.822L184.361 49.116C185.159 49.312 185.439 49.634 185.439 50.194C185.439 50.922 184.823 51.37 183.773 51.37C182.821 51.37 182.233 50.88 182.233 50.096H181.309ZM191.444 44.58C191.444 45.952 192.27 46.848 193.838 47.226L195.532 47.646C196.61 47.898 197.114 48.486 197.114 49.382C197.114 50.53 196.176 51.244 194.706 51.244C193.334 51.244 192.41 50.558 192.354 49.508H191.318C191.444 51.146 192.76 52.168 194.706 52.168C196.778 52.168 198.122 51.062 198.122 49.326C198.122 47.968 197.31 47.072 195.742 46.694L194.02 46.274C192.97 46.008 192.452 45.448 192.452 44.566C192.452 43.432 193.376 42.704 194.79 42.704C196.05 42.704 196.82 43.348 196.932 44.482H197.954C197.8 42.802 196.61 41.794 194.804 41.794C192.788 41.794 191.444 42.9 191.444 44.58ZM201.279 52V46.036H202.637V45.224H201.279V43.082H200.327V45.224H198.969V46.036H200.327V52H201.279ZM203.35 48.612C203.35 50.67 204.806 52.168 206.794 52.168C208.782 52.168 210.238 50.67 210.238 48.612C210.238 46.54 208.782 45.042 206.794 45.042C204.806 45.042 203.35 46.54 203.35 48.612ZM204.33 48.598C204.33 47.03 205.338 45.91 206.794 45.91C208.236 45.91 209.258 47.03 209.258 48.598C209.258 50.194 208.236 51.3 206.794 51.3C205.338 51.3 204.33 50.194 204.33 48.598ZM215.325 45.14C215.087 45.084 214.905 45.07 214.695 45.07C213.743 45.07 213.029 45.546 212.763 46.274L212.693 45.224H211.783V52H212.749V48.136C212.749 46.848 213.547 46.008 214.793 46.008H215.325V45.14ZM216.129 54.954C216.437 55.024 216.745 55.052 217.151 55.052C218.117 55.052 218.775 54.618 219.167 53.554L222.275 45.224H221.281L219.139 51.132L216.955 45.224H215.933L218.677 52.406L218.383 53.204C218.047 54.114 217.459 54.156 216.871 54.156H216.129V54.954Z" fill="black"/>
<path d="M137.371 55.29H222.401V56.41H137.371V55.29Z" fill="black"/>
</svg>
