<svg width="537" height="538" viewBox="0 0 537 538" fill="none" xmlns="http://www.w3.org/2000/svg">
<rect x="222" width="314.286" height="400" rx="20" fill="#212121"/>
<path d="M294.476 61V53.278C294.476 50.88 294.432 49.142 294.344 48.548L299.47 61H300.988L306.114 48.482C306.026 49.56 305.982 50.77 305.982 53.52V61H307.544V45.248H305.96L300.218 59.13L294.476 45.248H292.914V61H294.476ZM310.291 55.676C310.291 58.91 312.579 61.264 315.703 61.264C318.827 61.264 321.115 58.91 321.115 55.676C321.115 52.42 318.827 50.066 315.703 50.066C312.579 50.066 310.291 52.42 310.291 55.676ZM311.831 55.654C311.831 53.19 313.415 51.43 315.703 51.43C317.969 51.43 319.575 53.19 319.575 55.654C319.575 58.162 317.969 59.9 315.703 59.9C313.415 59.9 311.831 58.162 311.831 55.654ZM325.061 61V55.434C325.061 53.036 326.293 51.452 328.471 51.452C330.231 51.452 331.353 52.332 331.353 54.818V61H332.871V54.488C332.871 51.804 331.661 50.066 328.735 50.066C327.195 50.066 325.787 50.836 325.083 52.2L324.863 50.352H323.543V61H325.061ZM338.339 61V51.628H340.473V50.352H338.339V46.986H336.843V50.352H334.709V51.628H336.843V61H338.339ZM343.967 60.978V55.192C343.967 53.146 345.155 51.452 347.443 51.452C349.093 51.452 350.259 52.332 350.259 54.818V61H351.777V54.488C351.777 51.804 350.523 50.066 347.729 50.066C345.947 50.066 344.649 50.924 343.967 52.2V44.962H342.449V60.978H343.967ZM356.387 61V44.962H354.869V61H356.387ZM358.537 65.642C359.021 65.752 359.505 65.796 360.143 65.796C361.661 65.796 362.695 65.114 363.311 63.442L368.195 50.352H366.633L363.267 59.636L359.835 50.352H358.229L362.541 61.638L362.079 62.892C361.551 64.322 360.627 64.388 359.703 64.388H358.537V65.642ZM375.456 49.34C375.456 51.496 376.754 52.904 379.218 53.498L381.88 54.158C383.574 54.554 384.366 55.478 384.366 56.886C384.366 58.69 382.892 59.812 380.582 59.812C378.426 59.812 376.974 58.734 376.886 57.084H375.258C375.456 59.658 377.524 61.264 380.582 61.264C383.838 61.264 385.95 59.526 385.95 56.798C385.95 54.664 384.674 53.256 382.21 52.662L379.504 52.002C377.854 51.584 377.04 50.704 377.04 49.318C377.04 47.536 378.492 46.392 380.714 46.392C382.694 46.392 383.904 47.404 384.08 49.186H385.686C385.444 46.546 383.574 44.962 380.736 44.962C377.568 44.962 375.456 46.7 375.456 49.34ZM388.469 65.642H389.987V58.954C390.735 60.494 392.165 61.264 393.969 61.264C397.115 61.264 398.897 58.844 398.897 55.632C398.897 52.42 397.049 50.066 393.969 50.066C392.187 50.066 390.691 50.858 389.943 52.508L389.789 50.352H388.469V65.642ZM390.009 55.676C390.009 53.212 391.373 51.452 393.705 51.452C396.015 51.452 397.357 53.212 397.357 55.676C397.357 58.118 396.015 59.9 393.705 59.9C391.373 59.9 390.009 58.118 390.009 55.676ZM405.782 61.264C408.29 61.264 409.94 60.054 410.512 57.81H409.06C408.664 59.218 407.542 59.966 405.804 59.966C403.516 59.966 402.152 58.47 402.042 55.874H410.512V55.126C410.512 52.112 408.554 50.066 405.672 50.066C402.636 50.066 400.568 52.354 400.568 55.676C400.568 59.02 402.658 61.264 405.782 61.264ZM405.672 51.364C407.674 51.364 408.994 52.728 408.994 54.774H402.086C402.35 52.684 403.67 51.364 405.672 51.364ZM414.457 61V55.434C414.457 53.036 415.689 51.452 417.867 51.452C419.627 51.452 420.749 52.332 420.749 54.818V61H422.267V54.488C422.267 51.804 421.057 50.066 418.131 50.066C416.591 50.066 415.183 50.836 414.479 52.2L414.259 50.352H412.939V61H414.457ZM429.473 61.264C431.255 61.264 432.751 60.472 433.499 58.822L433.653 61H434.973V44.962H433.455V52.376C432.707 50.836 431.299 50.066 429.539 50.066C426.371 50.066 424.545 52.486 424.545 55.698C424.545 58.888 426.371 61.264 429.473 61.264ZM429.737 59.878C427.427 59.878 426.085 58.118 426.085 55.654C426.085 53.212 427.427 51.43 429.737 51.43C432.069 51.43 433.433 53.212 433.433 55.654C433.433 58.118 432.069 59.878 429.737 59.878ZM438.889 47.426C439.505 47.426 440.033 46.92 440.033 46.304C440.033 45.688 439.505 45.16 438.889 45.16C438.273 45.16 437.767 45.688 437.767 46.304C437.767 46.92 438.273 47.426 438.889 47.426ZM438.141 61H439.659V50.352H438.141V61ZM444.342 61V55.434C444.342 53.036 445.574 51.452 447.752 51.452C449.512 51.452 450.634 52.332 450.634 54.818V61H452.152V54.488C452.152 51.804 450.942 50.066 448.016 50.066C446.476 50.066 445.068 50.836 444.364 52.2L444.144 50.352H442.824V61H444.342ZM454.452 55.368C454.452 58.272 456.3 60.67 459.336 60.67C461.162 60.67 462.636 59.79 463.362 58.294V60.824C463.362 63.046 461.91 64.52 459.732 64.52C457.818 64.52 456.498 63.508 456.168 61.792H454.65C455.068 64.366 456.982 65.906 459.71 65.906C462.834 65.906 464.858 63.838 464.858 60.67V50.352H463.538L463.384 52.486C462.702 50.924 461.294 50.066 459.446 50.066C456.322 50.066 454.452 52.464 454.452 55.368ZM455.97 55.346C455.97 53.19 457.29 51.408 459.578 51.408C461.91 51.408 463.23 53.08 463.23 55.346C463.23 57.634 461.866 59.306 459.556 59.306C457.312 59.306 455.97 57.524 455.97 55.346Z" fill="#F7F9FC"/>
<path d="M379 108.147C433.595 108.147 477.852 152.405 477.852 207C477.852 261.595 433.595 305.852 379 305.852C324.405 305.852 280.148 261.595 280.148 207" stroke="#EDF860" stroke-width="8" stroke-linecap="round"/>
<path d="M379.001 126.836C423.274 126.836 459.164 162.727 459.164 207C459.164 251.273 423.274 287.164 379.001 287.164C345.575 287.164 316.927 266.706 304.738 237.241" stroke="#EDF860" stroke-width="8" stroke-linecap="round"/>
<path d="M378.601 146.508C412.23 146.508 439.492 173.591 439.492 207C439.492 240.409 412.23 267.492 378.601 267.492C361.282 267.492 345.652 260.309 334.246 248.444" stroke="#EDF860" stroke-width="8" stroke-linecap="round"/>
<path d="M378.508 166.18C401.324 166.18 419.82 184.456 419.82 207C419.82 229.544 401.324 247.82 378.508 247.82" stroke="#EDF860" stroke-width="8" stroke-linecap="round"/>
<path d="M379 186.836C390.136 186.836 399.164 195.864 399.164 207C399.164 218.136 390.136 227.164 379 227.164C367.864 227.164 358.836 218.136 358.836 207" stroke="#EDF860" stroke-width="8" stroke-linecap="round"/>
<circle cx="379" cy="359" r="7" fill="#EDF860"/>
<circle opacity="0.17224" cx="400" cy="359" r="7" fill="#E1DBFF"/>
<circle opacity="0.17224" cx="358" cy="359" r="7" fill="#E1DBFF"/>
<rect y="370" width="369" height="168" rx="20" fill="#936EFE"/>
<path d="M130.928 451.824H126.112V460H120.848V451.824H99.904V446.952L119 419.512H126.112V446.952H130.928V451.824ZM105.84 446.952H120.848V425.336L105.84 446.952ZM136.234 448.744C136.234 446.317 136.887 444.189 138.194 442.36C139.538 440.493 141.33 439.149 143.57 438.328C139.65 436.648 137.69 433.68 137.69 429.424C137.69 426.251 138.922 423.693 141.386 421.752C143.887 419.773 147.154 418.784 151.186 418.784C155.18 418.784 158.391 419.773 160.818 421.752C163.282 423.731 164.514 426.307 164.514 429.48C164.514 431.571 163.991 433.381 162.946 434.912C161.938 436.443 160.482 437.581 158.578 438.328C160.855 439.075 162.666 440.381 164.01 442.248C165.354 444.115 166.026 446.299 166.026 448.8C166.026 452.347 164.663 455.221 161.938 457.424C159.212 459.589 155.61 460.672 151.13 460.672C146.612 460.672 142.991 459.589 140.266 457.424C137.578 455.221 136.234 452.328 136.234 448.744ZM142.73 429.76C142.73 431.739 143.476 433.325 144.97 434.52C146.5 435.715 148.535 436.312 151.074 436.312C153.612 436.312 155.628 435.733 157.122 434.576C158.615 433.419 159.362 431.851 159.362 429.872C159.362 427.931 158.615 426.4 157.122 425.28C155.628 424.123 153.612 423.544 151.074 423.544C148.572 423.544 146.556 424.123 145.026 425.28C143.495 426.4 142.73 427.893 142.73 429.76ZM141.61 448.352C141.61 450.629 142.468 452.44 144.186 453.784C145.94 455.128 148.255 455.8 151.13 455.8C154.004 455.8 156.3 455.128 158.018 453.784C159.735 452.44 160.594 450.629 160.594 448.352C160.594 446.112 159.735 444.339 158.018 443.032C156.3 441.688 153.986 441.016 151.074 441.016C148.199 441.016 145.903 441.688 144.186 443.032C142.468 444.339 141.61 446.112 141.61 448.352ZM179.704 457.816C179.704 459.832 179.032 461.587 177.688 463.08C176.344 464.573 174.683 465.451 172.704 465.712V463.36C173.861 463.173 174.795 462.725 175.504 462.016C176.251 461.344 176.624 460.579 176.624 459.72C176.251 459.944 175.747 460.056 175.112 460.056C174.179 460.056 173.376 459.739 172.704 459.104C172.032 458.469 171.696 457.648 171.696 456.64C171.696 455.52 172.032 454.605 172.704 453.896C173.413 453.149 174.328 452.776 175.448 452.776C176.643 452.776 177.651 453.243 178.472 454.176C179.293 455.109 179.704 456.323 179.704 457.816ZM185.507 448.744C185.507 446.317 186.16 444.189 187.467 442.36C188.811 440.493 190.603 439.149 192.843 438.328C188.923 436.648 186.963 433.68 186.963 429.424C186.963 426.251 188.195 423.693 190.659 421.752C193.16 419.773 196.427 418.784 200.459 418.784C204.454 418.784 207.664 419.773 210.091 421.752C212.555 423.731 213.787 426.307 213.787 429.48C213.787 431.571 213.264 433.381 212.219 434.912C211.211 436.443 209.755 437.581 207.851 438.328C210.128 439.075 211.939 440.381 213.283 442.248C214.627 444.115 215.299 446.299 215.299 448.8C215.299 452.347 213.936 455.221 211.211 457.424C208.486 459.589 204.883 460.672 200.403 460.672C195.886 460.672 192.264 459.589 189.539 457.424C186.851 455.221 185.507 452.328 185.507 448.744ZM192.003 429.76C192.003 431.739 192.75 433.325 194.243 434.52C195.774 435.715 197.808 436.312 200.347 436.312C202.886 436.312 204.902 435.733 206.395 434.576C207.888 433.419 208.635 431.851 208.635 429.872C208.635 427.931 207.888 426.4 206.395 425.28C204.902 424.123 202.886 423.544 200.347 423.544C197.846 423.544 195.83 424.123 194.299 425.28C192.768 426.4 192.003 427.893 192.003 429.76ZM190.883 448.352C190.883 450.629 191.742 452.44 193.459 453.784C195.214 455.128 197.528 455.8 200.403 455.8C203.278 455.8 205.574 455.128 207.291 453.784C209.008 452.44 209.867 450.629 209.867 448.352C209.867 446.112 209.008 444.339 207.291 443.032C205.574 441.688 203.259 441.016 200.347 441.016C197.472 441.016 195.176 441.688 193.459 443.032C191.742 444.339 190.883 446.112 190.883 448.352ZM240.667 429.088C240.667 432.075 239.696 434.539 237.755 436.48C235.851 438.421 233.406 439.392 230.419 439.392C227.47 439.392 225.024 438.421 223.083 436.48C221.179 434.539 220.227 432.075 220.227 429.088C220.227 426.064 221.179 423.581 223.083 421.64C224.987 419.699 227.432 418.728 230.419 418.728C233.406 418.728 235.851 419.699 237.755 421.64C239.696 423.581 240.667 426.064 240.667 429.088ZM262.003 419.568L231.259 460H225.883L256.627 419.568H262.003ZM236.355 429.088C236.355 427.259 235.795 425.784 234.675 424.664C233.592 423.507 232.174 422.928 230.419 422.928C228.664 422.928 227.246 423.507 226.163 424.664C225.08 425.784 224.539 427.259 224.539 429.088C224.539 430.88 225.08 432.355 226.163 433.512C227.283 434.632 228.702 435.192 230.419 435.192C232.174 435.192 233.592 434.632 234.675 433.512C235.795 432.355 236.355 430.88 236.355 429.088ZM267.771 450.424C267.771 453.411 266.8 455.875 264.859 457.816C262.955 459.757 260.51 460.728 257.523 460.728C254.536 460.728 252.072 459.757 250.131 457.816C248.227 455.875 247.275 453.411 247.275 450.424C247.275 447.4 248.227 444.936 250.131 443.032C252.072 441.091 254.536 440.12 257.523 440.12C260.51 440.12 262.955 441.091 264.859 443.032C266.8 444.936 267.771 447.4 267.771 450.424ZM263.403 450.424C263.403 448.595 262.862 447.12 261.779 446C260.696 444.843 259.278 444.264 257.523 444.264C255.768 444.264 254.35 444.843 253.267 446C252.184 447.12 251.643 448.595 251.643 450.424C251.643 452.216 252.184 453.691 253.267 454.848C254.387 455.968 255.806 456.528 257.523 456.528C259.24 456.528 260.64 455.968 261.723 454.848C262.843 453.691 263.403 452.216 263.403 450.424Z" fill="white"/>
<path d="M59.56 497H60.94L64.78 484.84L68.62 497H69.98L74.28 482.68H72.82L69.86 492.54C69.7 493.08 69.52 493.78 69.3 494.88C69.08 493.96 68.88 493.24 68.66 492.52L65.54 482.68H64.04L60.92 492.52C60.7 493.22 60.5 493.84 60.26 494.88C60.08 493.94 59.9 493.22 59.7 492.52L56.8 482.68H55.3L59.56 497ZM78.957 497.24C81.237 497.24 82.737 496.14 83.257 494.1H81.937C81.577 495.38 80.557 496.06 78.977 496.06C76.897 496.06 75.657 494.7 75.557 492.34H83.257V491.66C83.257 488.92 81.477 487.06 78.857 487.06C76.097 487.06 74.217 489.14 74.217 492.16C74.217 495.2 76.117 497.24 78.957 497.24ZM78.857 488.24C80.677 488.24 81.877 489.48 81.877 491.34H75.597C75.837 489.44 77.037 488.24 78.857 488.24ZM89.5234 497.24C91.8034 497.24 93.3034 496.14 93.8234 494.1H92.5034C92.1434 495.38 91.1234 496.06 89.5434 496.06C87.4634 496.06 86.2234 494.7 86.1234 492.34H93.8234V491.66C93.8234 488.92 92.0434 487.06 89.4234 487.06C86.6634 487.06 84.7834 489.14 84.7834 492.16C84.7834 495.2 86.6834 497.24 89.5234 497.24ZM89.4234 488.24C91.2434 488.24 92.4434 489.48 92.4434 491.34H86.1634C86.4034 489.44 87.6034 488.24 89.4234 488.24ZM97.4698 497V494.1L99.3498 492.16L102.43 497H104.03L100.29 491.18L104.01 487.32H102.27L97.4698 492.32V482.42H96.0898V497H97.4698ZM107.118 497V482.42H105.738V497H107.118ZM109.073 501.22C109.513 501.32 109.953 501.36 110.533 501.36C111.913 501.36 112.853 500.74 113.413 499.22L117.853 487.32H116.433L113.373 495.76L110.253 487.32H108.793L112.713 497.58L112.293 498.72C111.813 500.02 110.973 500.08 110.133 500.08H109.073V501.22ZM127.794 497.24C129.434 497.24 130.754 496.52 131.354 495.3L131.534 497H132.694V490.74C132.694 488.18 131.054 487.06 128.814 487.06C126.434 487.06 124.834 488.32 124.834 490.28H126.094C126.094 488.98 127.094 488.22 128.774 488.22C130.194 488.22 131.334 488.82 131.334 490.72V491.04L128.134 491.3C125.874 491.48 124.514 492.6 124.514 494.38C124.514 496.08 125.734 497.24 127.794 497.24ZM128.114 496.12C126.794 496.12 125.914 495.52 125.914 494.34C125.914 493.26 126.654 492.46 128.474 492.3L131.334 492.08V492.6C131.334 494.7 130.154 496.12 128.114 496.12ZM137.773 497H139.153L143.173 487.32H141.753L139.213 493.56C138.933 494.26 138.673 494.9 138.493 495.56C138.313 494.92 138.053 494.26 137.793 493.56L135.293 487.32H133.813L137.773 497ZM148.43 497.24C150.71 497.24 152.21 496.14 152.73 494.1H151.41C151.05 495.38 150.03 496.06 148.45 496.06C146.37 496.06 145.13 494.7 145.03 492.34H152.73V491.66C152.73 488.92 150.95 487.06 148.33 487.06C145.57 487.06 143.69 489.14 143.69 492.16C143.69 495.2 145.59 497.24 148.43 497.24ZM148.33 488.24C150.15 488.24 151.35 489.48 151.35 491.34H145.07C145.31 489.44 146.51 488.24 148.33 488.24ZM159.996 487.2C159.656 487.12 159.396 487.1 159.096 487.1C157.736 487.1 156.716 487.78 156.336 488.82L156.236 487.32H154.936V497H156.316V491.48C156.316 489.64 157.456 488.44 159.236 488.44H159.996V487.2ZM164.22 497.24C165.86 497.24 167.18 496.52 167.78 495.3L167.96 497H169.12V490.74C169.12 488.18 167.48 487.06 165.24 487.06C162.86 487.06 161.26 488.32 161.26 490.28H162.52C162.52 488.98 163.52 488.22 165.2 488.22C166.62 488.22 167.76 488.82 167.76 490.72V491.04L164.56 491.3C162.3 491.48 160.94 492.6 160.94 494.38C160.94 496.08 162.16 497.24 164.22 497.24ZM164.54 496.12C163.22 496.12 162.34 495.52 162.34 494.34C162.34 493.26 163.08 492.46 164.9 492.3L167.76 492.08V492.6C167.76 494.7 166.58 496.12 164.54 496.12ZM171.229 491.88C171.229 494.52 172.909 496.7 175.669 496.7C177.329 496.7 178.669 495.9 179.329 494.54V496.84C179.329 498.86 178.009 500.2 176.029 500.2C174.289 500.2 173.089 499.28 172.789 497.72H171.409C171.789 500.06 173.529 501.46 176.009 501.46C178.849 501.46 180.689 499.58 180.689 496.7V487.32H179.489L179.349 489.26C178.729 487.84 177.449 487.06 175.769 487.06C172.929 487.06 171.229 489.24 171.229 491.88ZM172.609 491.86C172.609 489.9 173.809 488.28 175.889 488.28C178.009 488.28 179.209 489.8 179.209 491.86C179.209 493.94 177.969 495.46 175.869 495.46C173.829 495.46 172.609 493.84 172.609 491.86ZM187.629 497.24C189.909 497.24 191.409 496.14 191.929 494.1H190.609C190.249 495.38 189.229 496.06 187.649 496.06C185.569 496.06 184.329 494.7 184.229 492.34H191.929V491.66C191.929 488.92 190.149 487.06 187.529 487.06C184.769 487.06 182.889 489.14 182.889 492.16C182.889 495.2 184.789 497.24 187.629 497.24ZM187.529 488.24C189.349 488.24 190.549 489.48 190.549 491.34H184.269C184.509 489.44 185.709 488.24 187.529 488.24ZM204.742 487.2C204.402 487.12 204.142 487.1 203.842 487.1C202.482 487.1 201.462 487.78 201.082 488.82L200.982 487.32H199.682V497H201.062V491.48C201.062 489.64 202.202 488.44 203.982 488.44H204.742V487.2ZM210.266 497.24C212.546 497.24 214.046 496.14 214.566 494.1H213.246C212.886 495.38 211.866 496.06 210.286 496.06C208.206 496.06 206.966 494.7 206.866 492.34H214.566V491.66C214.566 488.92 212.786 487.06 210.166 487.06C207.406 487.06 205.526 489.14 205.526 492.16C205.526 495.2 207.426 497.24 210.266 497.24ZM210.166 488.24C211.986 488.24 213.186 489.48 213.186 491.34H206.906C207.146 489.44 208.346 488.24 210.166 488.24ZM218.894 497V488.48H220.834V487.32H218.894V484.26H217.534V487.32H215.594V488.48H217.534V497H218.894ZM225.255 497.24C226.895 497.24 228.215 496.52 228.815 495.3L228.995 497H230.155V490.74C230.155 488.18 228.515 487.06 226.275 487.06C223.895 487.06 222.295 488.32 222.295 490.28H223.555C223.555 488.98 224.555 488.22 226.235 488.22C227.655 488.22 228.795 488.82 228.795 490.72V491.04L225.595 491.3C223.335 491.48 221.975 492.6 221.975 494.38C221.975 496.08 223.195 497.24 225.255 497.24ZM225.575 496.12C224.255 496.12 223.375 495.52 223.375 494.34C223.375 493.26 224.115 492.46 225.935 492.3L228.795 492.08V492.6C228.795 494.7 227.615 496.12 225.575 496.12ZM234.304 497V491.94C234.304 489.76 235.424 488.32 237.404 488.32C239.004 488.32 240.024 489.12 240.024 491.38V497H241.404V491.08C241.404 488.64 240.304 487.06 237.644 487.06C236.244 487.06 234.964 487.76 234.324 489L234.124 487.32H232.924V497H234.304ZM246.375 497V488.48H248.315V487.32H246.375V484.26H245.015V487.32H243.075V488.48H245.015V497H246.375ZM250.792 484.66C251.352 484.66 251.832 484.2 251.832 483.64C251.832 483.08 251.352 482.6 250.792 482.6C250.232 482.6 249.772 483.08 249.772 483.64C249.772 484.2 250.232 484.66 250.792 484.66ZM250.112 497H251.492V487.32H250.112V497ZM253.69 492.16C253.69 495.1 255.77 497.24 258.61 497.24C261.45 497.24 263.53 495.1 263.53 492.16C263.53 489.2 261.45 487.06 258.61 487.06C255.77 487.06 253.69 489.2 253.69 492.16ZM255.09 492.14C255.09 489.9 256.53 488.3 258.61 488.3C260.67 488.3 262.13 489.9 262.13 492.14C262.13 494.42 260.67 496 258.61 496C256.53 496 255.09 494.42 255.09 492.14ZM267.117 497V491.94C267.117 489.76 268.237 488.32 270.217 488.32C271.817 488.32 272.837 489.12 272.837 491.38V497H274.217V491.08C274.217 488.64 273.117 487.06 270.457 487.06C269.057 487.06 267.777 487.76 267.137 489L266.937 487.32H265.737V497H267.117ZM287.574 487.2C287.234 487.12 286.974 487.1 286.674 487.1C285.314 487.1 284.294 487.78 283.914 488.82L283.814 487.32H282.514V497H283.894V491.48C283.894 489.64 285.034 488.44 286.814 488.44H287.574V487.2ZM291.798 497.24C293.438 497.24 294.758 496.52 295.358 495.3L295.538 497H296.698V490.74C296.698 488.18 295.058 487.06 292.818 487.06C290.438 487.06 288.838 488.32 288.838 490.28H290.098C290.098 488.98 291.098 488.22 292.778 488.22C294.198 488.22 295.338 488.82 295.338 490.72V491.04L292.138 491.3C289.878 491.48 288.518 492.6 288.518 494.38C288.518 496.08 289.738 497.24 291.798 497.24ZM292.118 496.12C290.798 496.12 289.918 495.52 289.918 494.34C289.918 493.26 290.658 492.46 292.478 492.3L295.338 492.08V492.6C295.338 494.7 294.158 496.12 292.118 496.12ZM301.512 497V488.48H303.452V487.32H301.512V484.26H300.152V487.32H298.212V488.48H300.152V497H301.512ZM309.211 497.24C311.491 497.24 312.991 496.14 313.511 494.1H312.191C311.831 495.38 310.811 496.06 309.231 496.06C307.151 496.06 305.911 494.7 305.811 492.34H313.511V491.66C313.511 488.92 311.731 487.06 309.111 487.06C306.351 487.06 304.471 489.14 304.471 492.16C304.471 495.2 306.371 497.24 309.211 497.24ZM309.111 488.24C310.931 488.24 312.131 489.48 312.131 491.34H305.851C306.091 489.44 307.291 488.24 309.111 488.24Z" fill="white"/>
</svg>
