<svg width="778" height="842" viewBox="0 0 778 842" fill="none" xmlns="http://www.w3.org/2000/svg">
<circle cx="377" cy="465" r="377" fill="#EDF860"/>
<mask id="mask0_1_69" style="mask-type:alpha" maskUnits="userSpaceOnUse" x="0" y="88" width="754" height="754">
<circle cx="377" cy="465" r="377" fill="#F8A881"/>
</mask>
<g mask="url(#mask0_1_69)">
<rect x="162" y="2" width="428" height="853" rx="44" fill="white"/>
</g>
<rect x="162" width="429" height="429" rx="44" fill="black"/>
<path d="M191.484 132V124.98C191.484 122.8 191.444 121.22 191.364 120.68L196.024 132H197.404L202.064 120.62C201.984 121.6 201.944 122.7 201.944 125.2V132H203.364V117.68H201.924L196.704 130.3L191.484 117.68H190.064V132H191.484ZM205.528 127.16C205.528 130.1 207.608 132.24 210.448 132.24C213.288 132.24 215.368 130.1 215.368 127.16C215.368 124.2 213.288 122.06 210.448 122.06C207.608 122.06 205.528 124.2 205.528 127.16ZM206.928 127.14C206.928 124.9 208.368 123.3 210.448 123.3C212.508 123.3 213.968 124.9 213.968 127.14C213.968 129.42 212.508 131 210.448 131C208.368 131 206.928 129.42 206.928 127.14ZM218.622 132V126.94C218.622 124.76 219.742 123.32 221.722 123.32C223.322 123.32 224.342 124.12 224.342 126.38V132H225.722V126.08C225.722 123.64 224.622 122.06 221.962 122.06C220.562 122.06 219.282 122.76 218.642 124L218.442 122.32H217.242V132H218.622ZM230.359 132V123.48H232.299V122.32H230.359V119.26H228.999V122.32H227.059V123.48H228.999V132H230.359ZM235.143 131.98V126.72C235.143 124.86 236.223 123.32 238.303 123.32C239.803 123.32 240.863 124.12 240.863 126.38V132H242.243V126.08C242.243 123.64 241.103 122.06 238.563 122.06C236.943 122.06 235.763 122.84 235.143 124V117.42H233.763V131.98H235.143ZM246.1 132V117.42H244.72V132H246.1ZM247.722 136.22C248.162 136.32 248.602 136.36 249.182 136.36C250.562 136.36 251.502 135.74 252.062 134.22L256.502 122.32H255.082L252.022 130.76L248.902 122.32H247.442L251.362 132.58L250.942 133.72C250.462 135.02 249.622 135.08 248.782 135.08H247.722V136.22Z" fill="white"/>
<path d="M186.24 395.636C186.24 397.124 187.128 398.144 188.676 398.144C190.128 398.144 191.136 397.208 191.136 395.648V389.408H190.272V395.624C190.272 396.644 189.768 397.328 188.676 397.328C187.632 397.328 187.08 396.656 187.08 395.636V395.3H186.24V395.636ZM194.316 398.144C195.3 398.144 196.092 397.712 196.452 396.98L196.56 398H197.256V394.244C197.256 392.708 196.272 392.036 194.928 392.036C193.5 392.036 192.54 392.792 192.54 393.968H193.296C193.296 393.188 193.896 392.732 194.904 392.732C195.756 392.732 196.44 393.092 196.44 394.232V394.424L194.52 394.58C193.164 394.688 192.348 395.36 192.348 396.428C192.348 397.448 193.08 398.144 194.316 398.144ZM194.508 397.472C193.716 397.472 193.188 397.112 193.188 396.404C193.188 395.756 193.632 395.276 194.724 395.18L196.44 395.048V395.36C196.44 396.62 195.732 397.472 194.508 397.472ZM199.412 398V394.964C199.412 393.656 200.084 392.792 201.272 392.792C202.232 392.792 202.844 393.272 202.844 394.628V398H203.672V394.448C203.672 392.984 203.012 392.036 201.416 392.036C200.576 392.036 199.808 392.456 199.424 393.2L199.304 392.192H198.584V398H199.412ZM233.507 394.22V393.44H229.991V390.2H234.191V389.408H229.127V398H229.991V394.22H233.507ZM237.109 398.144C238.477 398.144 239.377 397.484 239.689 396.26H238.897C238.681 397.028 238.069 397.436 237.121 397.436C235.873 397.436 235.129 396.62 235.069 395.204H239.689V394.796C239.689 393.152 238.621 392.036 237.049 392.036C235.393 392.036 234.265 393.284 234.265 395.096C234.265 396.92 235.405 398.144 237.109 398.144ZM237.049 392.744C238.141 392.744 238.861 393.488 238.861 394.604H235.093C235.237 393.464 235.957 392.744 237.049 392.744ZM241.399 398L241.483 396.812C241.891 397.712 242.695 398.144 243.667 398.144C245.359 398.144 246.367 396.848 246.367 395.108C246.367 393.356 245.383 392.036 243.691 392.036C242.707 392.036 241.915 392.468 241.507 393.32V389.252H240.679V398H241.399ZM241.519 395.084C241.519 393.752 242.263 392.78 243.535 392.78C244.795 392.78 245.527 393.752 245.527 395.084C245.527 396.428 244.795 397.388 243.535 397.388C242.263 397.388 241.519 396.428 241.519 395.084ZM272.344 398V393.788C272.344 392.48 272.32 391.532 272.272 391.208L275.068 398H275.896L278.692 391.172C278.644 391.76 278.62 392.42 278.62 393.92V398H279.472V389.408H278.608L275.476 396.98L272.344 389.408H271.492V398H272.344ZM282.713 398.144C283.697 398.144 284.489 397.712 284.849 396.98L284.957 398H285.653V394.244C285.653 392.708 284.669 392.036 283.325 392.036C281.897 392.036 280.937 392.792 280.937 393.968H281.693C281.693 393.188 282.293 392.732 283.301 392.732C284.153 392.732 284.837 393.092 284.837 394.232V394.424L282.917 394.58C281.561 394.688 280.745 395.36 280.745 396.428C280.745 397.448 281.477 398.144 282.713 398.144ZM282.905 397.472C282.113 397.472 281.585 397.112 281.585 396.404C281.585 395.756 282.029 395.276 283.121 395.18L284.837 395.048V395.36C284.837 396.62 284.129 397.472 282.905 397.472ZM290.017 392.12C289.813 392.072 289.657 392.06 289.477 392.06C288.661 392.06 288.049 392.468 287.821 393.092L287.761 392.192H286.981V398H287.809V394.688C287.809 393.584 288.493 392.864 289.561 392.864H290.017V392.12ZM317.918 398L318.758 395.72H322.718L323.558 398H324.458L321.266 389.408H320.198L317.042 398H317.918ZM320.618 390.62C320.666 390.5 320.714 390.344 320.726 390.272C320.738 390.356 320.798 390.5 320.834 390.62L322.442 394.964H319.022L320.618 390.62ZM325.139 400.532H325.967V396.884C326.375 397.724 327.155 398.144 328.139 398.144C329.855 398.144 330.827 396.824 330.827 395.072C330.827 393.32 329.819 392.036 328.139 392.036C327.167 392.036 326.351 392.468 325.943 393.368L325.859 392.192H325.139V400.532ZM325.979 395.096C325.979 393.752 326.723 392.792 327.995 392.792C329.255 392.792 329.987 393.752 329.987 395.096C329.987 396.428 329.255 397.4 327.995 397.4C326.723 397.4 325.979 396.428 325.979 395.096ZM334.849 392.12C334.645 392.072 334.489 392.06 334.309 392.06C333.493 392.06 332.881 392.468 332.653 393.092L332.593 392.192H331.813V398H332.641V394.688C332.641 393.584 333.325 392.864 334.393 392.864H334.849V392.12ZM366.597 398V393.788C366.597 392.48 366.573 391.532 366.525 391.208L369.321 398H370.149L372.945 391.172C372.897 391.76 372.873 392.42 372.873 393.92V398H373.725V389.408H372.861L369.729 396.98L366.597 389.408H365.745V398H366.597ZM376.966 398.144C377.95 398.144 378.742 397.712 379.102 396.98L379.21 398H379.906V394.244C379.906 392.708 378.922 392.036 377.578 392.036C376.15 392.036 375.19 392.792 375.19 393.968H375.946C375.946 393.188 376.546 392.732 377.554 392.732C378.406 392.732 379.09 393.092 379.09 394.232V394.424L377.17 394.58C375.814 394.688 374.998 395.36 374.998 396.428C374.998 397.448 375.73 398.144 376.966 398.144ZM377.158 397.472C376.366 397.472 375.838 397.112 375.838 396.404C375.838 395.756 376.282 395.276 377.374 395.18L379.09 395.048V395.36C379.09 396.62 378.382 397.472 377.158 397.472ZM380.517 400.532C380.781 400.592 381.045 400.616 381.393 400.616C382.221 400.616 382.785 400.244 383.121 399.332L385.785 392.192H384.933L383.097 397.256L381.225 392.192H380.349L382.701 398.348L382.449 399.032C382.161 399.812 381.657 399.848 381.153 399.848H380.517V400.532ZM409.754 395.636C409.754 397.124 410.642 398.144 412.19 398.144C413.642 398.144 414.65 397.208 414.65 395.648V389.408H413.786V395.624C413.786 396.644 413.282 397.328 412.19 397.328C411.146 397.328 410.594 396.656 410.594 395.636V395.3H409.754V395.636ZM420.242 392.192V395.276C420.242 396.656 419.582 397.4 418.466 397.4C417.542 397.4 416.93 396.908 416.93 395.528V392.18H416.09V395.792C416.09 397.208 416.834 398.144 418.202 398.144C419.114 398.144 419.918 397.688 420.242 397.016L420.35 398H421.07V392.192H420.242ZM423.29 398V394.964C423.29 393.656 423.962 392.792 425.15 392.792C426.11 392.792 426.722 393.272 426.722 394.628V398H427.55V394.448C427.55 392.984 426.89 392.036 425.294 392.036C424.454 392.036 423.686 392.456 423.302 393.2L423.182 392.192H422.462V398H423.29ZM455.196 395.636C455.196 397.124 456.084 398.144 457.632 398.144C459.084 398.144 460.092 397.208 460.092 395.648V389.408H459.228V395.624C459.228 396.644 458.724 397.328 457.632 397.328C456.588 397.328 456.036 396.656 456.036 395.636V395.3H455.196V395.636ZM465.684 392.192V395.276C465.684 396.656 465.024 397.4 463.908 397.4C462.984 397.4 462.372 396.908 462.372 395.528V392.18H461.532V395.792C461.532 397.208 462.276 398.144 463.644 398.144C464.556 398.144 465.36 397.688 465.684 397.016L465.792 398H466.512V392.192H465.684ZM468.767 398V389.252H467.939V398H468.767ZM494.333 398L495.173 395.72H499.133L499.973 398H500.873L497.681 389.408H496.613L493.457 398H494.333ZM497.033 390.62C497.081 390.5 497.129 390.344 497.141 390.272C497.153 390.356 497.213 390.5 497.249 390.62L498.857 394.964H495.437L497.033 390.62ZM505.529 392.192V395.276C505.529 396.656 504.869 397.4 503.753 397.4C502.829 397.4 502.217 396.908 502.217 395.528V392.18H501.377V395.792C501.377 397.208 502.121 398.144 503.489 398.144C504.401 398.144 505.205 397.688 505.529 397.016L505.637 398H506.357V392.192H505.529ZM507.352 394.928C507.352 396.512 508.36 397.82 510.016 397.82C511.012 397.82 511.816 397.34 512.212 396.524V397.904C512.212 399.116 511.42 399.92 510.232 399.92C509.188 399.92 508.468 399.368 508.288 398.432H507.46C507.688 399.836 508.732 400.676 510.22 400.676C511.924 400.676 513.028 399.548 513.028 397.82V392.192H512.308L512.224 393.356C511.852 392.504 511.084 392.036 510.076 392.036C508.372 392.036 507.352 393.344 507.352 394.928ZM508.18 394.916C508.18 393.74 508.9 392.768 510.148 392.768C511.42 392.768 512.14 393.68 512.14 394.916C512.14 396.164 511.396 397.076 510.136 397.076C508.912 397.076 508.18 396.104 508.18 394.916Z" fill="white"/>
<path d="M195.44 188.18H198.828V184.44C204.724 183.78 208.508 180.084 208.508 174.716C208.508 170.052 205.956 167.324 200.324 166.092L198.828 165.74V156.28C201.116 156.764 202.436 158.304 202.524 160.68H207.98C207.804 155.4 204.372 151.924 198.828 151.352V147.612H195.44V151.352C189.588 151.968 185.716 155.664 185.716 160.812C185.716 165.652 188.488 168.732 194.032 169.92L195.44 170.228V179.6C192.58 179.248 190.952 177.664 190.908 175.156H185.276C185.408 180.524 189.324 184.088 195.44 184.528V188.18ZM195.264 164.948C192.448 164.332 191.216 162.968 191.216 160.636C191.216 158.26 192.8 156.676 195.44 156.236V164.992L195.264 164.948ZM199.136 171.02C201.776 171.592 203.052 172.956 203.052 175.2C203.052 177.444 201.468 178.984 198.828 179.512V170.932L199.136 171.02ZM234.038 183.956V178.72H220.662L226.47 173.748C231.354 169.568 233.818 166.18 233.818 161.692C233.818 155.18 229.55 151.264 222.686 151.264C215.866 151.264 211.378 155.84 211.334 162.88H216.922C216.966 158.744 219.166 156.28 222.686 156.28C226.074 156.28 228.054 158.348 228.054 162C228.054 165.08 226.602 167.192 222.246 170.888L211.73 179.776V184L234.038 183.956ZM247.876 184.528C255.048 184.528 259.932 179.776 259.932 172.824C259.932 166.488 255.664 162.132 249.24 162.132C247.04 162.132 245.104 162.704 243.564 163.716L245.28 157.028H257.996V151.836H241.232L237.272 168.688L242.244 169.744C243.388 168.072 245.632 166.84 248.096 166.84C251.968 166.84 254.212 169.392 254.212 173.132C254.212 177.048 251.792 179.512 248.008 179.512C244.444 179.512 242.288 177.356 242.288 173.704H236.7C236.7 180.216 241.144 184.528 247.876 184.528ZM270.202 182.064C270.202 179.336 268.618 177.532 266.418 177.532C264.438 177.532 263.074 178.94 263.074 181.052C263.074 182.812 264.482 184.088 266.198 184.088C266.726 184.088 267.122 184 267.474 183.824C267.474 185.364 265.978 186.552 263.998 186.904V189.06C267.562 188.62 270.202 185.716 270.202 182.064ZM273.031 167.984C273.031 177.928 278.091 184.572 286.627 184.572C295.163 184.572 300.267 177.928 300.267 167.984C300.267 157.996 294.855 151.22 286.627 151.22C278.399 151.22 273.031 157.996 273.031 167.984ZM278.575 167.984C278.575 160.372 281.567 156.192 286.627 156.192C291.731 156.192 294.723 160.372 294.723 167.984C294.723 175.42 291.731 179.6 286.627 179.6C281.567 179.6 278.575 175.42 278.575 167.984ZM303.721 167.984C303.721 177.928 308.781 184.572 317.317 184.572C325.853 184.572 330.957 177.928 330.957 167.984C330.957 157.996 325.545 151.22 317.317 151.22C309.089 151.22 303.721 157.996 303.721 167.984ZM309.265 167.984C309.265 160.372 312.257 156.192 317.317 156.192C322.421 156.192 325.413 160.372 325.413 167.984C325.413 175.42 322.421 179.6 317.317 179.6C312.257 179.6 309.265 175.42 309.265 167.984ZM334.412 167.984C334.412 177.928 339.472 184.572 348.008 184.572C356.544 184.572 361.648 177.928 361.648 167.984C361.648 157.996 356.236 151.22 348.008 151.22C339.78 151.22 334.412 157.996 334.412 167.984ZM339.956 167.984C339.956 160.372 342.948 156.192 348.008 156.192C353.112 156.192 356.104 160.372 356.104 167.984C356.104 175.42 353.112 179.6 348.008 179.6C342.948 179.6 339.956 175.42 339.956 167.984Z" fill="white"/>
<path d="M217.35 59H212.092V43.094H217.262C219.638 43.094 221.56 43.8273 223.026 45.294C224.493 46.7607 225.226 48.682 225.226 51.058C225.226 53.4193 224.5 55.3333 223.048 56.8C221.596 58.2667 219.697 59 217.35 59ZM217.108 45.074H214.248V56.998H217.196C218.971 56.998 220.379 56.4627 221.42 55.392C222.462 54.3213 222.982 52.8767 222.982 51.058C222.982 49.21 222.454 47.7507 221.398 46.68C220.357 45.6093 218.927 45.074 217.108 45.074ZM230.355 59.264C229.211 59.264 228.309 58.9707 227.649 58.384C227.004 57.7827 226.681 56.9907 226.681 56.008C226.681 55.0253 227.026 54.2407 227.715 53.654C228.419 53.0527 229.409 52.7007 230.685 52.598L234.073 52.334V52.026C234.073 50.398 233.23 49.584 231.543 49.584C230.678 49.584 230.003 49.7673 229.519 50.134C229.05 50.5007 228.815 51.0067 228.815 51.652H227.011C227.011 50.5373 227.429 49.6427 228.265 48.968C229.116 48.2787 230.238 47.934 231.631 47.934C233.01 47.934 234.095 48.3007 234.887 49.034C235.694 49.7673 236.097 50.838 236.097 52.246V59H234.337L234.117 57.262C233.839 57.878 233.355 58.3693 232.665 58.736C231.991 59.088 231.221 59.264 230.355 59.264ZM230.949 57.658C231.932 57.658 232.702 57.3647 233.259 56.778C233.817 56.1767 234.095 55.37 234.095 54.358V53.786L231.345 54.006C229.629 54.1673 228.771 54.8127 228.771 55.942C228.771 56.4993 228.962 56.9247 229.343 57.218C229.725 57.5113 230.26 57.658 230.949 57.658ZM237.673 55.876H239.653C239.653 56.4187 239.844 56.8513 240.225 57.174C240.621 57.482 241.164 57.636 241.853 57.636C242.572 57.636 243.129 57.4967 243.525 57.218C243.936 56.9393 244.141 56.5507 244.141 56.052C244.141 55.6707 244.031 55.37 243.811 55.15C243.591 54.9153 243.21 54.732 242.667 54.6L240.775 54.16C238.898 53.7053 237.959 52.708 237.959 51.168C237.959 50.1853 238.333 49.4007 239.081 48.814C239.829 48.2273 240.805 47.934 242.007 47.934C243.181 47.934 244.119 48.242 244.823 48.858C245.542 49.4593 245.916 50.2733 245.945 51.3H243.965C243.936 50.7573 243.745 50.332 243.393 50.024C243.041 49.7013 242.557 49.54 241.941 49.54C241.296 49.54 240.797 49.6793 240.445 49.958C240.093 50.222 239.917 50.6033 239.917 51.102C239.917 51.8207 240.445 52.312 241.501 52.576L243.393 53.038C244.332 53.258 245.021 53.5953 245.461 54.05C245.901 54.5047 246.121 55.128 246.121 55.92C246.121 56.932 245.725 57.746 244.933 58.362C244.141 58.9633 243.1 59.264 241.809 59.264C240.548 59.264 239.543 58.956 238.795 58.34C238.047 57.724 237.673 56.9027 237.673 55.876ZM250.075 58.978H248.007V42.808H250.075V49.892C250.427 49.2907 250.918 48.814 251.549 48.462C252.179 48.11 252.905 47.934 253.727 47.934C255.076 47.934 256.088 48.33 256.763 49.122C257.452 49.914 257.797 51.014 257.797 52.422V59H255.729V52.884C255.729 50.8453 254.871 49.826 253.155 49.826C252.187 49.826 251.431 50.1413 250.889 50.772C250.346 51.388 250.075 52.1727 250.075 53.126V58.978ZM262.123 59H260.253V42.808H262.321V50.09C262.673 49.4007 263.186 48.8727 263.861 48.506C264.55 48.1247 265.342 47.934 266.237 47.934C267.748 47.934 268.943 48.4693 269.823 49.54C270.718 50.6107 271.165 51.9893 271.165 53.676C271.165 55.3333 270.703 56.6827 269.779 57.724C268.87 58.7507 267.645 59.264 266.105 59.264C265.24 59.264 264.47 59.0733 263.795 58.692C263.135 58.3107 262.629 57.7607 262.277 57.042L262.123 59ZM262.343 53.588C262.343 54.732 262.644 55.656 263.245 56.36C263.861 57.0493 264.69 57.394 265.731 57.394C266.772 57.394 267.594 57.042 268.195 56.338C268.796 55.634 269.097 54.7173 269.097 53.588C269.097 52.4733 268.796 51.564 268.195 50.86C267.594 50.156 266.772 49.804 265.731 49.804C264.69 49.804 263.861 50.156 263.245 50.86C262.644 51.564 262.343 52.4733 262.343 53.588ZM273.916 57.68C272.86 56.624 272.332 55.2673 272.332 53.61C272.332 51.9527 272.86 50.596 273.916 49.54C274.972 48.484 276.314 47.956 277.942 47.956C279.556 47.956 280.89 48.484 281.946 49.54C283.002 50.596 283.53 51.9527 283.53 53.61C283.53 55.2673 283.002 56.624 281.946 57.68C280.89 58.736 279.556 59.264 277.942 59.264C276.314 59.264 274.972 58.736 273.916 57.68ZM275.39 50.86C274.745 51.564 274.422 52.4807 274.422 53.61C274.422 54.7393 274.745 55.656 275.39 56.36C276.05 57.064 276.901 57.416 277.942 57.416C278.984 57.416 279.827 57.064 280.472 56.36C281.132 55.6413 281.462 54.7247 281.462 53.61C281.462 52.4953 281.132 51.586 280.472 50.882C279.827 50.1633 278.984 49.804 277.942 49.804C276.901 49.804 276.05 50.156 275.39 50.86ZM288.557 59.264C287.413 59.264 286.511 58.9707 285.851 58.384C285.206 57.7827 284.883 56.9907 284.883 56.008C284.883 55.0253 285.228 54.2407 285.917 53.654C286.621 53.0527 287.611 52.7007 288.887 52.598L292.275 52.334V52.026C292.275 50.398 291.432 49.584 289.745 49.584C288.88 49.584 288.205 49.7673 287.721 50.134C287.252 50.5007 287.017 51.0067 287.017 51.652H285.213C285.213 50.5373 285.631 49.6427 286.467 48.968C287.318 48.2787 288.44 47.934 289.833 47.934C291.212 47.934 292.297 48.3007 293.089 49.034C293.896 49.7673 294.299 50.838 294.299 52.246V59H292.539L292.319 57.262C292.041 57.878 291.557 58.3693 290.867 58.736C290.193 59.088 289.423 59.264 288.557 59.264ZM289.151 57.658C290.134 57.658 290.904 57.3647 291.461 56.778C292.019 56.1767 292.297 55.37 292.297 54.358V53.786L289.547 54.006C287.831 54.1673 286.973 54.8127 286.973 55.942C286.973 56.4993 287.164 56.9247 287.545 57.218C287.927 57.5113 288.462 57.658 289.151 57.658ZM302.915 48.154V50.046H301.991C301.009 50.046 300.231 50.332 299.659 50.904C299.102 51.476 298.823 52.2753 298.823 53.302V59H296.755V48.264H298.691L298.823 49.892C299.043 49.32 299.417 48.8653 299.945 48.528C300.473 48.1907 301.097 48.022 301.815 48.022C302.138 48.022 302.505 48.066 302.915 48.154ZM308.372 59.264C306.832 59.264 305.608 58.7507 304.698 57.724C303.804 56.6827 303.356 55.326 303.356 53.654C303.356 51.9673 303.811 50.596 304.72 49.54C305.644 48.4693 306.891 47.934 308.46 47.934C309.296 47.934 310.037 48.11 310.682 48.462C311.342 48.814 311.856 49.32 312.222 49.98V42.808H314.268V59H312.42L312.244 57.042C311.892 57.7607 311.379 58.3107 310.704 58.692C310.03 59.0733 309.252 59.264 308.372 59.264ZM306.326 56.338C306.928 57.042 307.749 57.394 308.79 57.394C309.832 57.394 310.66 57.042 311.276 56.338C311.892 55.634 312.2 54.7173 312.2 53.588C312.2 52.4733 311.892 51.564 311.276 50.86C310.66 50.156 309.832 49.804 308.79 49.804C307.749 49.804 306.928 50.156 306.326 50.86C305.74 51.5493 305.446 52.4587 305.446 53.588C305.446 54.7173 305.74 55.634 306.326 56.338Z" fill="white"/>
<path d="M523.246 52.3853L522.564 52.5451L523.246 52.3853ZM523.246 48.1409L523.927 48.3007L523.246 48.1409ZM535.281 48.1409L535.962 47.981L535.281 48.1409ZM535.281 52.3853L535.962 52.5451L535.281 52.3853ZM531.385 56.2806L531.225 55.5991L531.385 56.2806ZM527.141 56.2806L527.301 55.5991L527.141 56.2806ZM527.141 44.2456L526.981 43.5641L527.141 44.2456ZM531.385 44.2456L531.545 43.5641L531.385 44.2456ZM536.505 58.495C536.778 58.7683 537.222 58.7683 537.495 58.495C537.768 58.2216 537.768 57.7784 537.495 57.505L536.505 58.495ZM523.927 52.2254C523.624 50.9347 523.624 49.5914 523.927 48.3007L522.564 47.981C522.212 49.482 522.212 51.0441 522.564 52.5451L523.927 52.2254ZM534.599 48.3007C534.902 49.5915 534.902 50.9347 534.599 52.2254L535.962 52.5451C536.314 51.0441 536.314 49.482 535.962 47.981L534.599 48.3007ZM531.225 55.5991C529.935 55.9018 528.591 55.9018 527.301 55.5991L526.981 56.9621C528.482 57.3142 530.044 57.3142 531.545 56.9621L531.225 55.5991ZM527.301 44.9271C528.591 44.6243 529.935 44.6243 531.225 44.9271L531.545 43.5641C530.044 43.212 528.482 43.212 526.981 43.5641L527.301 44.9271ZM527.301 55.5991C525.627 55.2064 524.32 53.8994 523.927 52.2254L522.564 52.5451C523.078 54.7368 524.789 56.448 526.981 56.9621L527.301 55.5991ZM531.545 56.9621C533.737 56.448 535.448 54.7368 535.962 52.5451L534.599 52.2254C534.206 53.8994 532.899 55.2064 531.225 55.5991L531.545 56.9621ZM531.225 44.9271C532.899 45.3197 534.206 46.6268 534.599 48.3007L535.962 47.981C535.448 45.7894 533.737 44.0782 531.545 43.5641L531.225 44.9271ZM526.981 43.5641C524.789 44.0782 523.078 45.7894 522.564 47.981L523.927 48.3007C524.32 46.6268 525.627 45.3197 527.301 44.9271L526.981 43.5641ZM533.655 55.6445L536.505 58.495L537.495 57.505L534.645 54.6546L533.655 55.6445Z" fill="white"/>
<path d="M556.873 57L568 57M568 50.875L554 50.875M568 44.75L561.85 44.75" stroke="white" stroke-width="1.4" stroke-linecap="round"/>
<path fill-rule="evenodd" clip-rule="evenodd" d="M185.195 51.4752C184.935 51.2125 184.935 50.7882 185.195 50.5248L191.358 44.285C191.733 43.905 192.343 43.905 192.718 44.285C193.093 44.665 193.093 45.2818 192.718 45.6618L187.446 51.0003L192.718 56.3375C193.093 56.7182 193.093 57.335 192.718 57.715C192.343 58.095 191.733 58.095 191.358 57.715L185.195 51.4752Z" fill="white"/>
<path opacity="0.184314" d="M185 359L214.919 344.598L228.292 349.857H263.478L282.45 334.349L309.263 344.598L335.26 349.857L363.28 334.349L404.236 326.896L447.16 344.598L509.327 312.649L569 306" stroke="#F2F2F2" stroke-width="4" stroke-dasharray="5"/>
<path d="M185 354L215.077 306.371L226.512 321.5L265.346 279.429L311.401 330.868L334.776 306.371L364.756 295.339L387.394 252.138L410.238 244.202L446.288 279.429L511.802 208.156L569 194" stroke="#EDF860" stroke-width="3" stroke-linecap="round" stroke-linejoin="round"/>
<circle cx="410" cy="245" r="6.5" fill="black" stroke="#EDF860" stroke-width="3"/>
<circle cx="446" cy="277" r="6.5" fill="black" stroke="#EDF860" stroke-width="3"/>
<circle cx="513" cy="209" r="6.5" fill="black" stroke="#EDF860" stroke-width="3"/>
<circle cx="362" cy="295" r="6.5" fill="black" stroke="#EDF860" stroke-width="3"/>
<circle cx="310" cy="329" r="6.5" fill="black" stroke="#EDF860" stroke-width="3"/>
<circle cx="267" cy="282" r="6.5" fill="black" stroke="#EDF860" stroke-width="3"/>
<circle cx="215" cy="307" r="6.5" fill="black" stroke="#EDF860" stroke-width="3"/>
<rect x="356" y="223" width="36" height="12" rx="6" fill="white"/>
<path d="M365.74 231.06C365.388 231.06 365.076 230.978 364.804 230.814C364.536 230.646 364.354 230.416 364.258 230.124L364.738 229.878C364.786 230.026 364.852 230.156 364.936 230.268C365.02 230.376 365.13 230.46 365.266 230.52C365.406 230.58 365.58 230.61 365.788 230.61C365.964 230.61 366.112 230.578 366.232 230.514C366.352 230.45 366.444 230.364 366.508 230.256C366.572 230.144 366.604 230.016 366.604 229.872C366.604 229.728 366.576 229.608 366.52 229.512C366.468 229.416 366.384 229.346 366.268 229.302C366.152 229.254 366 229.23 365.812 229.23C365.768 229.23 365.72 229.232 365.668 229.236C365.616 229.236 365.562 229.24 365.506 229.248V228.768C365.542 228.772 365.576 228.774 365.608 228.774C365.644 228.774 365.676 228.774 365.704 228.774C365.996 228.774 366.204 228.718 366.328 228.606C366.452 228.49 366.514 228.31 366.514 228.066C366.514 227.858 366.45 227.7 366.322 227.592C366.194 227.484 366.012 227.43 365.776 227.43C365.524 227.43 365.332 227.486 365.2 227.598C365.068 227.706 364.964 227.854 364.888 228.042L364.432 227.826C364.496 227.658 364.592 227.51 364.72 227.382C364.848 227.254 365.002 227.154 365.182 227.082C365.366 227.01 365.568 226.974 365.788 226.974C366.064 226.974 366.292 227.022 366.472 227.118C366.652 227.21 366.786 227.334 366.874 227.49C366.966 227.646 367.012 227.818 367.012 228.006C367.012 228.15 366.992 228.28 366.952 228.396C366.912 228.508 366.856 228.606 366.784 228.69C366.716 228.774 366.638 228.842 366.55 228.894C366.462 228.942 366.368 228.974 366.268 228.99V229.002C366.4 229.006 366.516 229.032 366.616 229.08C366.72 229.128 366.808 229.192 366.88 229.272C366.952 229.352 367.006 229.444 367.042 229.548C367.082 229.648 367.102 229.754 367.102 229.866C367.102 230.098 367.044 230.304 366.928 230.484C366.816 230.664 366.658 230.806 366.454 230.91C366.25 231.01 366.012 231.06 365.74 231.06ZM369.013 226.986C369.269 226.986 369.491 227.028 369.679 227.112C369.867 227.196 370.013 227.316 370.117 227.472C370.221 227.624 370.273 227.808 370.273 228.024C370.273 228.228 370.223 228.408 370.123 228.564C370.027 228.716 369.891 228.832 369.715 228.912V228.918C369.939 229.002 370.117 229.13 370.249 229.302C370.385 229.474 370.453 229.684 370.453 229.932C370.453 230.164 370.393 230.364 370.273 230.532C370.153 230.7 369.985 230.83 369.769 230.922C369.557 231.014 369.305 231.06 369.013 231.06C368.725 231.06 368.473 231.014 368.257 230.922C368.041 230.83 367.873 230.7 367.753 230.532C367.633 230.364 367.573 230.164 367.573 229.932C367.573 229.688 367.639 229.48 367.771 229.308C367.903 229.132 368.085 229.002 368.317 228.918V228.912C368.145 228.836 368.007 228.722 367.903 228.57C367.803 228.414 367.753 228.232 367.753 228.024C367.753 227.808 367.805 227.624 367.909 227.472C368.013 227.316 368.159 227.196 368.347 227.112C368.539 227.028 368.761 226.986 369.013 226.986ZM369.013 227.436C368.781 227.436 368.595 227.492 368.455 227.604C368.319 227.716 368.251 227.872 368.251 228.072C368.251 228.268 368.321 228.422 368.461 228.534C368.601 228.646 368.785 228.702 369.013 228.702C369.241 228.702 369.425 228.646 369.565 228.534C369.705 228.422 369.775 228.268 369.775 228.072C369.775 227.872 369.707 227.716 369.571 227.604C369.435 227.492 369.249 227.436 369.013 227.436ZM369.013 230.61C369.209 230.61 369.377 230.582 369.517 230.526C369.657 230.466 369.765 230.382 369.841 230.274C369.917 230.162 369.955 230.032 369.955 229.884C369.955 229.732 369.915 229.602 369.835 229.494C369.759 229.382 369.651 229.298 369.511 229.242C369.371 229.182 369.205 229.152 369.013 229.152C368.825 229.152 368.659 229.182 368.515 229.242C368.375 229.298 368.265 229.382 368.185 229.494C368.109 229.602 368.071 229.732 368.071 229.884C368.071 230.032 368.109 230.162 368.185 230.274C368.261 230.382 368.369 230.466 368.509 230.526C368.653 230.582 368.821 230.61 369.013 230.61ZM371.327 230.28C371.443 230.28 371.537 230.316 371.609 230.388C371.681 230.46 371.717 230.554 371.717 230.67C371.717 230.786 371.681 230.88 371.609 230.952C371.537 231.024 371.443 231.06 371.327 231.06C371.211 231.06 371.117 231.024 371.045 230.952C370.973 230.88 370.937 230.786 370.937 230.67C370.937 230.554 370.973 230.46 371.045 230.388C371.117 230.316 371.211 230.28 371.327 230.28ZM373.926 231V229.962H371.994V229.608L373.8 227.04H374.406V229.548H375.108V229.962H374.406V231H373.926ZM372.504 229.548H373.926V228.066C373.926 227.962 373.928 227.856 373.932 227.748C373.94 227.64 373.946 227.534 373.95 227.43H373.938C373.89 227.53 373.828 227.642 373.752 227.766C373.676 227.89 373.606 227.998 373.542 228.09L372.504 229.548ZM376.931 231.06C376.483 231.06 376.125 230.886 375.857 230.538C375.589 230.19 375.455 229.684 375.455 229.02C375.455 228.356 375.589 227.85 375.857 227.502C376.125 227.154 376.483 226.98 376.931 226.98C377.383 226.98 377.741 227.154 378.005 227.502C378.273 227.85 378.407 228.356 378.407 229.02C378.407 229.684 378.273 230.19 378.005 230.538C377.741 230.886 377.383 231.06 376.931 231.06ZM376.931 230.628C377.143 230.628 377.321 230.568 377.465 230.448C377.613 230.324 377.723 230.142 377.795 229.902C377.871 229.662 377.909 229.368 377.909 229.02C377.909 228.672 377.871 228.378 377.795 228.138C377.723 227.898 377.613 227.718 377.465 227.598C377.321 227.474 377.143 227.412 376.931 227.412C376.719 227.412 376.539 227.474 376.391 227.598C376.247 227.718 376.137 227.898 376.061 228.138C375.989 228.378 375.953 228.672 375.953 229.02C375.953 229.368 375.989 229.662 376.061 229.902C376.137 230.142 376.247 230.324 376.391 230.448C376.539 230.568 376.719 230.628 376.931 230.628ZM379.544 231L382.064 227.04H382.52L380 231H379.544ZM379.658 226.98C379.854 226.98 380.022 227.026 380.162 227.118C380.306 227.206 380.416 227.332 380.492 227.496C380.572 227.66 380.612 227.852 380.612 228.072C380.612 228.292 380.572 228.484 380.492 228.648C380.416 228.812 380.306 228.94 380.162 229.032C380.022 229.12 379.854 229.164 379.658 229.164C379.466 229.164 379.298 229.12 379.154 229.032C379.01 228.94 378.898 228.812 378.818 228.648C378.742 228.484 378.704 228.292 378.704 228.072C378.704 227.852 378.742 227.66 378.818 227.496C378.898 227.332 379.01 227.206 379.154 227.118C379.298 227.026 379.466 226.98 379.658 226.98ZM379.658 227.358C379.546 227.358 379.45 227.386 379.37 227.442C379.29 227.498 379.23 227.58 379.19 227.688C379.15 227.792 379.13 227.92 379.13 228.072C379.13 228.22 379.15 228.348 379.19 228.456C379.23 228.564 379.29 228.646 379.37 228.702C379.45 228.758 379.546 228.786 379.658 228.786C379.774 228.786 379.87 228.758 379.946 228.702C380.026 228.646 380.086 228.564 380.126 228.456C380.166 228.348 380.186 228.22 380.186 228.072C380.186 227.92 380.166 227.792 380.126 227.688C380.086 227.58 380.026 227.498 379.946 227.442C379.87 227.386 379.774 227.358 379.658 227.358ZM382.406 228.876C382.602 228.876 382.77 228.922 382.91 229.014C383.054 229.102 383.164 229.228 383.24 229.392C383.32 229.556 383.36 229.748 383.36 229.968C383.36 230.188 383.32 230.38 383.24 230.544C383.164 230.708 383.054 230.836 382.91 230.928C382.77 231.016 382.602 231.06 382.406 231.06C382.214 231.06 382.046 231.016 381.902 230.928C381.758 230.836 381.646 230.708 381.566 230.544C381.49 230.38 381.452 230.188 381.452 229.968C381.452 229.748 381.49 229.556 381.566 229.392C381.646 229.228 381.758 229.102 381.902 229.014C382.046 228.922 382.214 228.876 382.406 228.876ZM382.406 229.254C382.294 229.254 382.198 229.282 382.118 229.338C382.038 229.394 381.978 229.476 381.938 229.584C381.898 229.688 381.878 229.816 381.878 229.968C381.878 230.116 381.898 230.244 381.938 230.352C381.978 230.46 382.038 230.542 382.118 230.598C382.198 230.654 382.294 230.682 382.406 230.682C382.522 230.682 382.618 230.654 382.694 230.598C382.774 230.542 382.834 230.46 382.874 230.352C382.914 230.244 382.934 230.116 382.934 229.968C382.934 229.816 382.914 229.688 382.874 229.584C382.834 229.476 382.774 229.394 382.694 229.338C382.618 229.282 382.522 229.254 382.406 229.254Z" fill="black"/>
<rect x="184" y="451" width="186" height="211" rx="16" fill="#936EFE"/>
<path d="M205.06 607.02V613H206.5V607.02L211.3 598.68H209.72L206.22 604.86C205.96 605.36 205.96 605.36 205.78 605.72C205.64 605.4 205.52 605.16 205.36 604.86L201.82 598.68H200.2L205.06 607.02ZM214.796 613.24C217.076 613.24 218.576 612.14 219.096 610.1H217.776C217.416 611.38 216.396 612.06 214.816 612.06C212.736 612.06 211.496 610.7 211.396 608.34H219.096V607.66C219.096 604.92 217.316 603.06 214.696 603.06C211.936 603.06 210.056 605.14 210.056 608.16C210.056 611.2 211.956 613.24 214.796 613.24ZM214.696 604.24C216.516 604.24 217.716 605.48 217.716 607.34H211.436C211.676 605.44 212.876 604.24 214.696 604.24ZM223.651 613.24C225.291 613.24 226.611 612.52 227.211 611.3L227.391 613H228.551V606.74C228.551 604.18 226.911 603.06 224.671 603.06C222.291 603.06 220.691 604.32 220.691 606.28H221.951C221.951 604.98 222.951 604.22 224.631 604.22C226.051 604.22 227.191 604.82 227.191 606.72V607.04L223.991 607.3C221.731 607.48 220.371 608.6 220.371 610.38C220.371 612.08 221.591 613.24 223.651 613.24ZM223.971 612.12C222.651 612.12 221.771 611.52 221.771 610.34C221.771 609.26 222.511 608.46 224.331 608.3L227.191 608.08V608.6C227.191 610.7 226.011 612.12 223.971 612.12ZM236.047 603.2C235.707 603.12 235.447 603.1 235.147 603.1C233.787 603.1 232.767 603.78 232.387 604.82L232.287 603.32H230.987V613H232.367V607.48C232.367 605.64 233.507 604.44 235.287 604.44H236.047V603.2ZM238.988 613V598.42H237.608V613H238.988ZM240.61 617.22C241.05 617.32 241.49 617.36 242.07 617.36C243.45 617.36 244.39 616.74 244.95 615.22L249.39 603.32H247.97L244.91 611.76L241.79 603.32H240.33L244.25 613.58L243.83 614.72C243.35 616.02 242.51 616.08 241.67 616.08H240.61V617.22ZM200.24 626H204.64V639H206.08V626H210.5V624.68H200.24V626ZM217.457 629.32V634.46C217.457 636.76 216.357 638 214.497 638C212.957 638 211.937 637.18 211.937 634.88V629.3H210.537V635.32C210.537 637.68 211.777 639.24 214.057 639.24C215.577 639.24 216.917 638.48 217.457 637.36L217.637 639H218.837V629.32H217.457ZM226.439 629.2C226.099 629.12 225.839 629.1 225.539 629.1C224.179 629.1 223.159 629.78 222.779 630.82L222.679 629.32H221.379V639H222.759V633.48C222.759 631.64 223.899 630.44 225.679 630.44H226.439V629.2ZM229.32 639V633.94C229.32 631.76 230.44 630.32 232.42 630.32C234.02 630.32 235.04 631.12 235.04 633.38V639H236.42V633.08C236.42 630.64 235.32 629.06 232.66 629.06C231.26 629.06 229.98 629.76 229.34 631L229.14 629.32H227.94V639H229.32ZM238.157 634.16C238.157 637.1 240.237 639.24 243.077 639.24C245.917 639.24 247.997 637.1 247.997 634.16C247.997 631.2 245.917 629.06 243.077 629.06C240.237 629.06 238.157 631.2 238.157 634.16ZM239.557 634.14C239.557 631.9 240.997 630.3 243.077 630.3C245.137 630.3 246.597 631.9 246.597 634.14C246.597 636.42 245.137 638 243.077 638C240.997 638 239.557 636.42 239.557 634.14ZM252.141 639H253.521L257.541 629.32H256.121L253.581 635.56C253.301 636.26 253.041 636.9 252.861 637.56C252.681 636.92 252.421 636.26 252.161 635.56L249.661 629.32H248.181L252.141 639ZM262.465 639.24C264.745 639.24 266.245 638.14 266.765 636.1H265.445C265.085 637.38 264.065 638.06 262.485 638.06C260.405 638.06 259.165 636.7 259.065 634.34H266.765V633.66C266.765 630.92 264.985 629.06 262.365 629.06C259.605 629.06 257.725 631.14 257.725 634.16C257.725 637.2 259.625 639.24 262.465 639.24ZM262.365 630.24C264.185 630.24 265.385 631.48 265.385 633.34H259.105C259.345 631.44 260.545 630.24 262.365 630.24ZM273.698 629.2C273.358 629.12 273.098 629.1 272.798 629.1C271.438 629.1 270.418 629.78 270.038 630.82L269.938 629.32H268.638V639H270.018V633.48C270.018 631.64 271.158 630.44 272.938 630.44H273.698V629.2Z" fill="white"/>
<path d="M211.308 582.268V578.484C208.375 578.308 206.013 577.443 204.224 575.888C202.464 574.304 201.525 572.236 201.408 569.684H205.808C205.837 571.092 206.336 572.236 207.304 573.116C208.301 573.996 209.636 574.524 211.308 574.7V563.744L209.724 563.392C204.473 562.189 201.848 559.315 201.848 554.768C201.848 552.275 202.699 550.207 204.4 548.564C206.131 546.892 208.433 545.939 211.308 545.704V541.876H214.124V545.66C216.793 545.895 218.92 546.789 220.504 548.344C222.117 549.899 222.997 551.952 223.144 554.504H218.876C218.788 553.096 218.333 551.967 217.512 551.116C216.691 550.236 215.561 549.693 214.124 549.488V560.4L215.84 560.796C221.061 561.969 223.672 564.756 223.672 569.156C223.672 571.767 222.807 573.908 221.076 575.58C219.375 577.223 217.057 578.176 214.124 578.44V582.268H211.308ZM210.604 559.564L211.308 559.74V549.488C209.665 549.723 208.375 550.295 207.436 551.204C206.527 552.084 206.072 553.228 206.072 554.636C206.072 557.188 207.583 558.831 210.604 559.564ZM214.96 564.624L214.124 564.448V574.612C215.767 574.377 217.057 573.82 217.996 572.94C218.964 572.031 219.448 570.887 219.448 569.508C219.448 566.956 217.952 565.328 214.96 564.624ZM233.289 550.06H226.601V546.188H237.425V578H233.289V550.06ZM246.959 556.264L254.395 546.188H259.411L251.447 556.748C252.562 556.308 253.677 556.088 254.791 556.088C258.047 556.088 260.702 557.144 262.755 559.256C264.809 561.339 265.835 563.964 265.835 567.132C265.835 570.447 264.735 573.175 262.535 575.316C260.335 577.457 257.578 578.528 254.263 578.528C250.978 578.528 248.206 577.443 245.947 575.272C243.689 573.072 242.559 570.359 242.559 567.132C242.559 565.255 242.882 563.539 243.527 561.984C244.173 560.429 245.317 558.523 246.959 556.264ZM248.983 561.852C247.634 563.231 246.959 565.005 246.959 567.176C246.959 569.347 247.634 571.136 248.983 572.544C250.362 573.952 252.122 574.656 254.263 574.656C256.375 574.656 258.106 573.952 259.455 572.544C260.805 571.136 261.479 569.347 261.479 567.176C261.479 565.005 260.805 563.231 259.455 561.852C258.106 560.444 256.375 559.74 254.263 559.74C252.122 559.74 250.362 560.444 248.983 561.852ZM275.24 578H271.016V546.188H275.24L286.196 572.94L297.152 546.188H301.464V578H297.24V565.416C297.24 560.312 297.328 556.865 297.504 555.076L288.22 578H284.172L274.932 555.164C275.138 556.601 275.24 559.681 275.24 564.404V578Z" fill="white"/>
<rect x="203" y="473" width="44" height="44" rx="22" fill="white"/>
<path d="M231.842 495.575C231.843 497.043 231.409 498.478 230.594 499.699C229.779 500.92 228.62 501.872 227.264 502.434C225.908 502.996 224.416 503.144 222.976 502.858C221.536 502.572 220.213 501.866 219.175 500.828C218.137 499.79 217.43 498.468 217.143 497.028C216.856 495.588 217.003 494.096 217.565 492.74C218.126 491.384 219.077 490.224 220.298 489.409C221.518 488.593 222.953 488.158 224.421 488.158V495.575H231.842Z" fill="black"/>
<path d="M233.076 494.417H225.658V487C226.633 487 227.597 487.192 228.497 487.565C229.397 487.937 230.214 488.484 230.903 489.172C231.592 489.861 232.138 490.679 232.511 491.579C232.884 492.479 233.076 493.443 233.076 494.417Z" fill="black"/>
<rect x="384" y="451" width="186" height="211" rx="16" fill="#FF9AB6"/>
<path d="M403.18 598.68H401.74V613H409.76V611.68H403.18V598.68ZM414.062 613.24C415.702 613.24 417.022 612.52 417.622 611.3L417.802 613H418.962V606.74C418.962 604.18 417.322 603.06 415.082 603.06C412.702 603.06 411.102 604.32 411.102 606.28H412.362C412.362 604.98 413.362 604.22 415.042 604.22C416.462 604.22 417.602 604.82 417.602 606.72V607.04L414.402 607.3C412.142 607.48 410.782 608.6 410.782 610.38C410.782 612.08 412.002 613.24 414.062 613.24ZM414.382 612.12C413.062 612.12 412.182 611.52 412.182 610.34C412.182 609.26 412.922 608.46 414.742 608.3L417.602 608.08V608.6C417.602 610.7 416.422 612.12 414.382 612.12ZM420.578 610.28C420.578 612.08 421.938 613.24 424.118 613.24C426.318 613.24 427.798 612.1 427.798 610.36C427.798 608.96 427.038 608.18 425.358 607.76L423.698 607.34C422.638 607.08 422.118 606.56 422.118 605.82C422.118 604.78 422.878 604.2 424.238 604.2C425.538 604.2 426.318 604.86 426.358 605.98H427.698C427.638 604.18 426.318 603.06 424.278 603.06C422.198 603.06 420.778 604.14 420.778 605.84C420.778 607.16 421.598 608.04 423.278 608.46L424.938 608.88C426.078 609.16 426.478 609.62 426.478 610.42C426.478 611.46 425.598 612.1 424.098 612.1C422.738 612.1 421.898 611.4 421.898 610.28H420.578ZM431.957 613V604.48H433.897V603.32H431.957V600.26H430.597V603.32H428.657V604.48H430.597V613H431.957ZM403.16 639V631.98C403.16 629.8 403.12 628.22 403.04 627.68L407.7 639H409.08L413.74 627.62C413.66 628.6 413.62 629.7 413.62 632.2V639H415.04V624.68H413.6L408.38 637.3L403.16 624.68H401.74V639H403.16ZM417.204 634.16C417.204 637.1 419.284 639.24 422.124 639.24C424.964 639.24 427.044 637.1 427.044 634.16C427.044 631.2 424.964 629.06 422.124 629.06C419.284 629.06 417.204 631.2 417.204 634.16ZM418.604 634.14C418.604 631.9 420.044 630.3 422.124 630.3C424.184 630.3 425.644 631.9 425.644 634.14C425.644 636.42 424.184 638 422.124 638C420.044 638 418.604 636.42 418.604 634.14ZM430.298 639V633.94C430.298 631.76 431.418 630.32 433.398 630.32C434.998 630.32 436.018 631.12 436.018 633.38V639H437.398V633.08C437.398 630.64 436.298 629.06 433.638 629.06C432.238 629.06 430.958 629.76 430.318 631L430.118 629.32H428.918V639H430.298ZM442.035 639V630.48H443.975V629.32H442.035V626.26H440.675V629.32H438.735V630.48H440.675V639H442.035ZM446.819 638.98V633.72C446.819 631.86 447.899 630.32 449.979 630.32C451.479 630.32 452.539 631.12 452.539 633.38V639H453.919V633.08C453.919 630.64 452.779 629.06 450.239 629.06C448.619 629.06 447.439 629.84 446.819 631V624.42H445.439V638.98H446.819Z" fill="white"/>
<path d="M411.308 582.268V578.484C408.375 578.308 406.013 577.443 404.224 575.888C402.464 574.304 401.525 572.236 401.408 569.684H405.808C405.837 571.092 406.336 572.236 407.304 573.116C408.301 573.996 409.636 574.524 411.308 574.7V563.744L409.724 563.392C404.473 562.189 401.848 559.315 401.848 554.768C401.848 552.275 402.699 550.207 404.4 548.564C406.131 546.892 408.433 545.939 411.308 545.704V541.876H414.124V545.66C416.793 545.895 418.92 546.789 420.504 548.344C422.117 549.899 422.997 551.952 423.144 554.504H418.876C418.788 553.096 418.333 551.967 417.512 551.116C416.691 550.236 415.561 549.693 414.124 549.488V560.4L415.84 560.796C421.061 561.969 423.672 564.756 423.672 569.156C423.672 571.767 422.807 573.908 421.076 575.58C419.375 577.223 417.057 578.176 414.124 578.44V582.268H411.308ZM410.604 559.564L411.308 559.74V549.488C409.665 549.723 408.375 550.295 407.436 551.204C406.527 552.084 406.072 553.228 406.072 554.636C406.072 557.188 407.583 558.831 410.604 559.564ZM414.96 564.624L414.124 564.448V574.612C415.767 574.377 417.057 573.82 417.996 572.94C418.964 572.031 419.448 570.887 419.448 569.508C419.448 566.956 417.952 565.328 414.96 564.624ZM433.289 550.06H426.601V546.188H437.425V578H433.289V550.06ZM442.651 569.156C442.651 567.249 443.165 565.577 444.191 564.14C445.247 562.673 446.655 561.617 448.415 560.972C445.335 559.652 443.795 557.32 443.795 553.976C443.795 551.483 444.763 549.473 446.699 547.948C448.665 546.393 451.231 545.616 454.399 545.616C457.538 545.616 460.061 546.393 461.967 547.948C463.903 549.503 464.871 551.527 464.871 554.02C464.871 555.663 464.461 557.085 463.639 558.288C462.847 559.491 461.703 560.385 460.207 560.972C461.997 561.559 463.419 562.585 464.475 564.052C465.531 565.519 466.059 567.235 466.059 569.2C466.059 571.987 464.989 574.245 462.847 575.976C460.706 577.677 457.875 578.528 454.355 578.528C450.806 578.528 447.961 577.677 445.819 575.976C443.707 574.245 442.651 571.972 442.651 569.156ZM447.755 554.24C447.755 555.795 448.342 557.041 449.515 557.98C450.718 558.919 452.317 559.388 454.311 559.388C456.306 559.388 457.89 558.933 459.063 558.024C460.237 557.115 460.823 555.883 460.823 554.328C460.823 552.803 460.237 551.6 459.063 550.72C457.89 549.811 456.306 549.356 454.311 549.356C452.346 549.356 450.762 549.811 449.559 550.72C448.357 551.6 447.755 552.773 447.755 554.24ZM446.875 568.848C446.875 570.637 447.55 572.06 448.899 573.116C450.278 574.172 452.097 574.7 454.355 574.7C456.614 574.7 458.418 574.172 459.767 573.116C461.117 572.06 461.791 570.637 461.791 568.848C461.791 567.088 461.117 565.695 459.767 564.668C458.418 563.612 456.599 563.084 454.311 563.084C452.053 563.084 450.249 563.612 448.899 564.668C447.55 565.695 446.875 567.088 446.875 568.848ZM475.67 578H471.446V546.188H475.67L486.626 572.94L497.582 546.188H501.894V578H497.67V565.416C497.67 560.312 497.758 556.865 497.934 555.076L488.65 578H484.602L475.362 555.164C475.567 556.601 475.67 559.681 475.67 564.404V578Z" fill="white"/>
<rect x="403" y="473" width="44" height="44" rx="22" fill="white"/>
<path d="M420 491.462V501M425.25 501L425.25 489M430.5 501V495.729" stroke="black" stroke-width="2.6" stroke-linecap="round"/>
<rect x="184" y="684" width="385" height="14" rx="7" fill="#F5F5F5"/>
<rect x="184" y="708" width="385" height="14" rx="7" fill="#F5F5F5"/>
<rect x="184" y="732" width="340" height="14" rx="7" fill="#F5F5F5"/>
<rect x="184" y="756" width="229" height="14" rx="7" fill="#F5F5F5"/>
<g filter="url(#filter0_d_1_69)">
<rect x="416" y="698" width="338" height="80" rx="40" fill="#936EFE"/>
</g>
<path d="M514.671 732.272C514.671 735.248 516.447 737.288 519.543 737.288C522.447 737.288 524.463 735.416 524.463 732.296V719.816H522.735V732.248C522.735 734.288 521.727 735.656 519.543 735.656C517.455 735.656 516.351 734.312 516.351 732.272V731.6H514.671V732.272ZM530.889 737.288C532.857 737.288 534.441 736.424 535.161 734.96L535.377 737H536.769V729.488C536.769 726.416 534.801 725.072 532.113 725.072C529.257 725.072 527.337 726.584 527.337 728.936H528.849C528.849 727.376 530.049 726.464 532.065 726.464C533.769 726.464 535.137 727.184 535.137 729.464V729.848L531.297 730.16C528.585 730.376 526.953 731.72 526.953 733.856C526.953 735.896 528.417 737.288 530.889 737.288ZM531.273 735.944C529.689 735.944 528.633 735.224 528.633 733.808C528.633 732.512 529.521 731.552 531.705 731.36L535.137 731.096V731.72C535.137 734.24 533.721 735.944 531.273 735.944ZM541.148 737V729.8C541.148 728.024 542.324 726.584 544.268 726.584C546.02 726.584 547.148 727.736 547.148 729.704V737H548.78V729.824C548.78 728.024 549.932 726.56 551.876 726.56C553.652 726.56 554.756 727.736 554.756 729.728V737H556.364V729.392C556.364 726.704 554.708 725.072 552.188 725.072C550.316 725.072 548.9 726.032 548.372 727.544C547.82 726.032 546.452 725.072 544.628 725.072C542.996 725.072 541.7 725.816 541.124 727.04L540.932 725.384H539.492V737H541.148ZM563.967 737.288C566.703 737.288 568.503 735.968 569.127 733.52H567.543C567.111 735.056 565.887 735.872 563.991 735.872C561.495 735.872 560.007 734.24 559.887 731.408H569.127V730.592C569.127 727.304 566.991 725.072 563.847 725.072C560.535 725.072 558.279 727.568 558.279 731.192C558.279 734.84 560.559 737.288 563.967 737.288ZM563.847 726.488C566.031 726.488 567.471 727.976 567.471 730.208H559.935C560.223 727.928 561.663 726.488 563.847 726.488ZM570.191 733.736C570.191 735.896 571.823 737.288 574.439 737.288C577.079 737.288 578.855 735.92 578.855 733.832C578.855 732.152 577.943 731.216 575.927 730.712L573.935 730.208C572.663 729.896 572.039 729.272 572.039 728.384C572.039 727.136 572.951 726.44 574.583 726.44C576.143 726.44 577.079 727.232 577.127 728.576H578.735C578.663 726.416 577.079 725.072 574.631 725.072C572.135 725.072 570.431 726.368 570.431 728.408C570.431 729.992 571.415 731.048 573.431 731.552L575.423 732.056C576.791 732.392 577.271 732.944 577.271 733.904C577.271 735.152 576.215 735.92 574.415 735.92C572.783 735.92 571.775 735.08 571.775 733.736H570.191ZM597.693 737V735.416H589.125V729.152H596.877V727.592H589.125V721.4H597.669V719.816H587.397V737H597.693ZM604.802 737.288C606.746 737.288 608.378 736.424 609.194 734.624L609.362 737H610.802V719.504H609.146V727.592C608.33 725.912 606.794 725.072 604.874 725.072C601.418 725.072 599.426 727.712 599.426 731.216C599.426 734.696 601.418 737.288 604.802 737.288ZM605.09 735.776C602.57 735.776 601.106 733.856 601.106 731.168C601.106 728.504 602.57 726.56 605.09 726.56C607.634 726.56 609.122 728.504 609.122 731.168C609.122 733.856 607.634 735.776 605.09 735.776ZM616.106 737H617.762L620.162 729.704C620.474 728.744 620.666 728.048 620.834 727.424C620.978 728.12 621.17 728.84 621.458 729.704L623.858 737H625.466L629.402 725.384H627.674L625.37 732.392C624.962 733.64 624.914 733.928 624.674 734.888C624.458 734.024 624.17 733.016 623.954 732.392L621.674 725.384H619.97L617.666 732.392C617.546 732.776 617.162 733.952 616.97 734.888C616.73 733.952 616.514 733.16 616.25 732.392L613.97 725.384H612.266L616.106 737ZM633.691 737.288C635.659 737.288 637.243 736.424 637.963 734.96L638.179 737H639.571V729.488C639.571 726.416 637.603 725.072 634.915 725.072C632.059 725.072 630.139 726.584 630.139 728.936H631.651C631.651 727.376 632.851 726.464 634.867 726.464C636.571 726.464 637.939 727.184 637.939 729.464V729.848L634.099 730.16C631.387 730.376 629.755 731.72 629.755 733.856C629.755 735.896 631.219 737.288 633.691 737.288ZM634.075 735.944C632.491 735.944 631.435 735.224 631.435 733.808C631.435 732.512 632.323 731.552 634.507 731.36L637.939 731.096V731.72C637.939 734.24 636.523 735.944 634.075 735.944ZM648.366 725.24C647.958 725.144 647.646 725.12 647.286 725.12C645.654 725.12 644.43 725.936 643.974 727.184L643.854 725.384H642.294V737H643.95V730.376C643.95 728.168 645.318 726.728 647.454 726.728H648.366V725.24ZM654.082 737.288C656.026 737.288 657.658 736.424 658.474 734.624L658.642 737H660.082V719.504H658.426V727.592C657.61 725.912 656.074 725.072 654.154 725.072C650.698 725.072 648.706 727.712 648.706 731.216C648.706 734.696 650.698 737.288 654.082 737.288ZM654.37 735.776C651.85 735.776 650.386 733.856 650.386 731.168C650.386 728.504 651.85 726.56 654.37 726.56C656.914 726.56 658.402 728.504 658.402 731.168C658.402 733.856 656.914 735.776 654.37 735.776Z" fill="white"/>
<path fill-rule="evenodd" clip-rule="evenodd" d="M516.224 749.485C515.728 749.25 515.152 749.25 514.657 749.485C514.313 749.648 514.07 749.956 513.854 750.304C513.637 750.655 513.399 751.131 513.103 751.723L513.103 751.723L513.091 751.747L512.852 752.224C512.649 752.631 512.59 752.738 512.516 752.815C512.439 752.895 512.347 752.959 512.246 753.003C512.147 753.046 512.027 753.065 511.575 753.115L511.358 753.139L511.332 753.142H511.332C510.62 753.221 510.051 753.284 509.621 753.372C509.196 753.458 508.8 753.586 508.523 753.869C508.126 754.273 507.94 754.839 508.018 755.4C508.072 755.792 508.314 756.13 508.604 756.453C508.897 756.779 509.317 757.169 509.842 757.656L509.861 757.674L510.09 757.887C510.488 758.256 510.59 758.36 510.647 758.472C510.706 758.587 510.737 758.714 510.739 758.843C510.74 758.968 510.698 759.11 510.515 759.629L510.507 759.654L510.507 759.654C510.238 760.42 510.025 761.026 509.904 761.498C509.787 761.957 509.721 762.407 509.874 762.797C510.09 763.345 510.556 763.757 511.127 763.901C511.532 764.004 511.967 763.884 512.403 763.712C512.851 763.536 513.418 763.252 514.132 762.895L514.156 762.883L514.712 762.605C515.086 762.418 515.189 762.372 515.287 762.353C515.388 762.334 515.492 762.334 515.593 762.353C515.692 762.372 515.794 762.418 516.169 762.605L516.724 762.883L516.748 762.895C517.463 763.252 518.03 763.536 518.477 763.712C518.913 763.884 519.348 764.004 519.753 763.901C520.324 763.757 520.791 763.345 521.006 762.797C521.159 762.407 521.093 761.957 520.976 761.498C520.855 761.026 520.642 760.42 520.373 759.654V759.654L520.365 759.629C520.183 759.11 520.14 758.968 520.142 758.843C520.143 758.714 520.174 758.587 520.233 758.472C520.291 758.36 520.392 758.256 520.79 757.887L521.019 757.674L521.038 757.656C521.563 757.169 521.983 756.779 522.277 756.453C522.566 756.13 522.808 755.792 522.863 755.4C522.94 754.839 522.754 754.273 522.357 753.869C522.08 753.586 521.684 753.458 521.26 753.372C520.829 753.284 520.26 753.221 519.548 753.142L519.522 753.139L519.305 753.115C518.853 753.065 518.733 753.046 518.635 753.003C518.533 752.959 518.441 752.895 518.365 752.815C518.29 752.738 518.231 752.631 518.028 752.224L517.789 751.747L517.778 751.723C517.481 751.131 517.243 750.655 517.026 750.304C516.81 749.956 516.567 749.648 516.224 749.485Z" fill="#FFC250"/>
<path fill-rule="evenodd" clip-rule="evenodd" d="M533.863 749.485C533.367 749.25 532.792 749.25 532.296 749.485C531.953 749.648 531.709 749.956 531.494 750.304C531.277 750.655 531.039 751.131 530.742 751.723L530.742 751.723L530.731 751.747L530.492 752.224C530.289 752.631 530.229 752.738 530.155 752.815C530.079 752.895 529.987 752.959 529.885 753.003C529.787 753.046 529.666 753.065 529.215 753.115L528.998 753.139L528.972 753.142H528.972C528.26 753.221 527.691 753.284 527.26 753.372C526.835 753.458 526.44 753.586 526.163 753.869C525.766 754.273 525.579 754.839 525.657 755.4C525.712 755.792 525.953 756.13 526.243 756.453C526.537 756.779 526.956 757.169 527.482 757.656L527.501 757.674L527.73 757.887C528.127 758.256 528.229 758.36 528.286 758.472C528.345 758.587 528.377 758.714 528.378 758.843C528.38 758.968 528.337 759.11 528.155 759.629L528.146 759.654L528.146 759.654C527.878 760.42 527.665 761.026 527.544 761.498C527.427 761.957 527.361 762.407 527.514 762.797C527.729 763.345 528.196 763.757 528.767 763.901C529.172 764.004 529.606 763.884 530.043 763.712C530.49 763.536 531.057 763.252 531.772 762.895L531.795 762.883L532.351 762.605C532.726 762.418 532.828 762.372 532.926 762.353C533.028 762.334 533.132 762.334 533.233 762.353C533.331 762.372 533.434 762.418 533.808 762.605L534.364 762.883L534.388 762.895C535.102 763.252 535.669 763.536 536.117 763.712C536.553 763.884 536.987 764.004 537.392 763.901C537.964 763.757 538.43 763.345 538.646 762.797C538.799 762.407 538.733 761.957 538.616 761.498C538.495 761.026 538.282 760.42 538.013 759.654V759.654L538.004 759.629C537.822 759.11 537.78 758.968 537.781 758.843C537.783 758.714 537.814 758.587 537.873 758.472C537.93 758.36 538.032 758.256 538.43 757.887L538.659 757.674L538.678 757.656C539.203 757.169 539.622 756.779 539.916 756.453C540.206 756.13 540.448 755.792 540.502 755.4C540.58 754.839 540.393 754.273 539.997 753.869C539.72 753.586 539.324 753.458 538.899 753.372C538.469 753.284 537.9 753.221 537.188 753.142L537.162 753.139L536.945 753.115C536.493 753.065 536.373 753.046 536.274 753.003C536.173 752.959 536.081 752.895 536.004 752.815C535.93 752.738 535.871 752.631 535.668 752.224L535.429 751.747L535.417 751.723C535.121 751.131 534.883 750.655 534.666 750.304C534.45 749.956 534.207 749.648 533.863 749.485Z" fill="#FFC250"/>
<path fill-rule="evenodd" clip-rule="evenodd" d="M551.503 749.485C551.007 749.25 550.432 749.25 549.936 749.485C549.592 749.648 549.349 749.956 549.133 750.304C548.916 750.655 548.678 751.131 548.382 751.723L548.382 751.723L548.37 751.747L548.131 752.224C547.928 752.631 547.869 752.738 547.795 752.815C547.718 752.895 547.626 752.959 547.525 753.003C547.426 753.046 547.306 753.065 546.854 753.115L546.637 753.139L546.611 753.142H546.611C545.899 753.221 545.33 753.284 544.9 753.372C544.475 753.458 544.079 753.586 543.802 753.869C543.406 754.273 543.219 754.839 543.297 755.4C543.351 755.792 543.593 756.13 543.883 756.453C544.177 756.779 544.596 757.169 545.121 757.656L545.14 757.674L545.369 757.887C545.767 758.256 545.869 758.36 545.926 758.472C545.985 758.587 546.016 758.714 546.018 758.843C546.019 758.968 545.977 759.11 545.795 759.629L545.786 759.654L545.786 759.654C545.517 760.42 545.304 761.026 545.183 761.498C545.066 761.957 545 762.407 545.153 762.797C545.369 763.345 545.835 763.757 546.407 763.901C546.811 764.004 547.246 763.884 547.682 763.712C548.13 763.536 548.697 763.252 549.412 762.895L549.435 762.883L549.991 762.605C550.365 762.418 550.468 762.372 550.566 762.353C550.667 762.334 550.771 762.334 550.873 762.353C550.971 762.372 551.073 762.418 551.448 762.605L552.004 762.883L552.027 762.895C552.742 763.252 553.309 763.536 553.756 763.712C554.192 763.884 554.627 764.004 555.032 763.901C555.603 763.757 556.07 763.345 556.285 762.797C556.438 762.407 556.372 761.957 556.255 761.498C556.134 761.026 555.921 760.42 555.653 759.654V759.654L555.644 759.629C555.462 759.11 555.419 758.968 555.421 758.843C555.422 758.714 555.454 758.587 555.513 758.472C555.57 758.36 555.672 758.256 556.069 757.887L556.298 757.674L556.318 757.656C556.843 757.169 557.262 756.779 557.556 756.453C557.846 756.13 558.087 755.792 558.142 755.4C558.22 754.839 558.033 754.273 557.636 753.869C557.359 753.586 556.964 753.458 556.539 753.372C556.108 753.284 555.539 753.221 554.827 753.142L554.801 753.139L554.584 753.115C554.133 753.065 554.012 753.046 553.914 753.003C553.812 752.959 553.72 752.895 553.644 752.815C553.57 752.738 553.51 752.631 553.307 752.224L553.068 751.747L553.057 751.723C552.76 751.131 552.522 750.655 552.305 750.304C552.09 749.956 551.846 749.648 551.503 749.485Z" fill="#FFC250"/>
<path fill-rule="evenodd" clip-rule="evenodd" d="M569.142 749.485C568.647 749.25 568.071 749.25 567.575 749.485C567.232 749.648 566.989 749.956 566.773 750.304C566.556 750.655 566.318 751.131 566.021 751.723L566.021 751.723L566.01 751.747L565.771 752.224C565.568 752.631 565.509 752.738 565.434 752.815C565.358 752.895 565.266 752.959 565.164 753.003C565.066 753.046 564.945 753.065 564.494 753.115L564.277 753.139L564.251 753.142H564.251C563.539 753.221 562.97 753.284 562.539 753.372C562.115 753.458 561.719 753.586 561.442 753.869C561.045 754.273 560.859 754.839 560.936 755.4C560.991 755.792 561.233 756.13 561.522 756.453C561.816 756.779 562.236 757.169 562.761 757.656L562.78 757.674L563.009 757.887C563.407 758.256 563.508 758.36 563.566 758.472C563.625 758.587 563.656 758.714 563.657 758.843C563.659 758.968 563.616 759.11 563.434 759.629L563.426 759.654L563.426 759.654C563.157 760.42 562.944 761.026 562.823 761.498C562.706 761.957 562.64 762.407 562.793 762.797C563.008 763.345 563.475 763.757 564.046 763.901C564.451 764.004 564.886 763.884 565.322 763.712C565.769 763.536 566.336 763.252 567.051 762.895L567.075 762.883L567.63 762.605C568.005 762.418 568.107 762.372 568.206 762.353C568.307 762.334 568.411 762.334 568.512 762.353C568.61 762.372 568.713 762.418 569.087 762.605L569.643 762.883L569.667 762.895C570.381 763.252 570.948 763.536 571.396 763.712C571.832 763.884 572.267 764.004 572.672 763.901C573.243 763.757 573.709 763.345 573.925 762.797C574.078 762.407 574.012 761.957 573.895 761.498C573.774 761.026 573.561 760.42 573.292 759.654V759.654L573.284 759.629C573.101 759.11 573.059 758.968 573.06 758.843C573.062 758.714 573.093 758.587 573.152 758.472C573.209 758.36 573.311 758.256 573.709 757.887L573.938 757.674L573.957 757.656C574.482 757.169 574.902 756.779 575.195 756.453C575.485 756.13 575.727 755.792 575.781 755.4C575.859 754.839 575.673 754.273 575.276 753.869C574.999 753.586 574.603 753.458 574.178 753.372C573.748 753.284 573.179 753.221 572.467 753.142L572.441 753.139L572.224 753.115C571.772 753.065 571.652 753.046 571.553 753.003C571.452 752.959 571.36 752.895 571.283 752.815C571.209 752.738 571.15 752.631 570.947 752.224L570.708 751.747L570.696 751.723C570.4 751.131 570.162 750.655 569.945 750.304C569.729 749.956 569.486 749.648 569.142 749.485Z" fill="#FFC250"/>
<path fill-rule="evenodd" clip-rule="evenodd" d="M586.782 749.485C586.286 749.25 585.711 749.25 585.215 749.485C584.872 749.648 584.628 749.956 584.412 750.304C584.196 750.655 583.957 751.131 583.661 751.723L583.661 751.723L583.649 751.747L583.411 752.224C583.207 752.631 583.148 752.738 583.074 752.815C582.997 752.895 582.906 752.959 582.804 753.003C582.706 753.046 582.585 753.065 582.133 753.115L581.917 753.139L581.891 753.142H581.891C581.178 753.221 580.61 753.284 580.179 753.372C579.754 753.458 579.358 753.586 579.081 753.869C578.685 754.273 578.498 754.839 578.576 755.4C578.63 755.792 578.872 756.13 579.162 756.453C579.456 756.779 579.875 757.169 580.4 757.656L580.42 757.674L580.648 757.887C581.046 758.256 581.148 758.36 581.205 758.472C581.264 758.587 581.296 758.714 581.297 758.843C581.298 758.968 581.256 759.11 581.074 759.629L581.065 759.654L581.065 759.654C580.796 760.42 580.584 761.026 580.463 761.498C580.345 761.957 580.28 762.407 580.433 762.797C580.648 763.345 581.115 763.757 581.686 763.901C582.091 764.004 582.525 763.884 582.961 763.712C583.409 763.536 583.976 763.252 584.691 762.895L584.714 762.883L585.27 762.605C585.645 762.418 585.747 762.372 585.845 762.353C585.947 762.334 586.051 762.334 586.152 762.353C586.25 762.372 586.352 762.418 586.727 762.605L587.283 762.883L587.306 762.895C588.021 763.252 588.588 763.536 589.036 763.712C589.472 763.884 589.906 764.004 590.311 763.901C590.882 763.757 591.349 763.345 591.564 762.797C591.718 762.407 591.652 761.957 591.534 761.498C591.413 761.026 591.201 760.42 590.932 759.654V759.654L590.923 759.629C590.741 759.11 590.699 758.968 590.7 758.843C590.701 758.714 590.733 758.587 590.792 758.472C590.849 758.36 590.951 758.256 591.349 757.887L591.578 757.674L591.597 757.656C592.122 757.169 592.541 756.779 592.835 756.453C593.125 756.13 593.367 755.792 593.421 755.4C593.499 754.839 593.312 754.273 592.916 753.869C592.639 753.586 592.243 753.458 591.818 753.372C591.387 753.284 590.819 753.221 590.107 753.142L590.08 753.139L589.864 753.115C589.412 753.065 589.292 753.046 589.193 753.003C589.091 752.959 589 752.895 588.923 752.815C588.849 752.738 588.79 752.631 588.587 752.224L588.348 751.747L588.336 751.723C588.04 751.131 587.802 750.655 587.585 750.304C587.369 749.956 587.125 749.648 586.782 749.485Z" fill="#FFC250"/>
<rect x="422" y="703" width="70" height="70" rx="35"/>
<path d="M713.698 724.258L714.456 724.464L713.698 724.258ZM718.287 719.447L718.045 718.699L718.287 719.447ZM713.648 724.442L712.889 724.237L712.889 724.237L713.648 724.442ZM713.433 728.964L714.208 728.831V728.831L713.433 728.964ZM713.458 729.11L712.683 729.243L712.683 729.243L713.458 729.11ZM713.986 734.064L714.143 733.293H714.143L713.986 734.064ZM714.395 734.147L714.552 733.376H714.552L714.395 734.147ZM726.272 734.147L726.115 733.376L726.272 734.147ZM726.68 734.064L726.837 734.834L726.68 734.064ZM727.214 729.082L727.989 729.215L727.989 729.215L727.214 729.082ZM727.24 728.927L726.465 728.794V728.794L727.24 728.927ZM727.046 724.474L726.286 724.673L726.286 724.673L727.046 724.474ZM726.977 724.209L727.737 724.01L727.737 724.01L726.977 724.209ZM722.519 719.454L722.766 718.707V718.707L722.519 719.454ZM727.392 729.445L727.008 730.131L727.392 729.445ZM713.298 729.432L712.921 728.742L713.298 729.432ZM721.12 718C721.12 717.566 720.768 717.214 720.333 717.214C719.899 717.214 719.547 717.566 719.547 718H721.12ZM719.547 719.116C719.547 719.551 719.899 719.903 720.333 719.903C720.768 719.903 721.12 719.551 721.12 719.116H719.547ZM717.01 734.559L717.098 733.778L716.157 733.672L716.226 734.616L717.01 734.559ZM723.657 734.559L724.441 734.616L724.509 733.672L723.569 733.778L723.657 734.559ZM723.556 735.197L724.319 735.385L723.556 735.197ZM723.465 735.567L722.701 735.38V735.38L723.465 735.567ZM721.115 737.908L721.298 738.672H721.298L721.115 737.908ZM719.551 737.908L719.368 738.672L719.551 737.908ZM717.202 735.567L716.439 735.755L717.202 735.567ZM717.111 735.197L717.874 735.009L717.111 735.197ZM714.456 724.464C715.002 722.449 716.549 720.837 718.53 720.195L718.045 718.699C715.562 719.504 713.625 721.521 712.939 724.053L714.456 724.464ZM714.407 724.648L714.456 724.464L712.939 724.053L712.889 724.237L714.407 724.648ZM714.208 728.831C713.969 727.439 714.037 726.011 714.407 724.648L712.889 724.237C712.46 725.82 712.381 727.479 712.658 729.097L714.208 728.831ZM714.233 728.977L714.208 728.831L712.658 729.097L712.683 729.243L714.233 728.977ZM712.786 731.623C712.786 730.975 713.145 730.411 713.674 730.123L712.921 728.742C711.905 729.297 711.214 730.379 711.214 731.623H712.786ZM714.143 733.293C713.356 733.133 712.786 732.436 712.786 731.623H711.214C711.214 733.179 712.305 734.523 713.829 734.834L714.143 733.293ZM714.552 733.376L714.143 733.293L713.829 734.834L714.238 734.917L714.552 733.376ZM726.115 733.376C722.299 734.154 718.367 734.154 714.552 733.376L714.238 734.917C718.261 735.737 722.406 735.737 726.429 734.917L726.115 733.376ZM726.524 733.293L726.115 733.376L726.429 734.917L726.837 734.834L726.524 733.293ZM727.88 731.623C727.88 732.436 727.31 733.133 726.524 733.293L726.837 734.834C728.362 734.523 729.453 733.179 729.453 731.623H727.88ZM727.008 730.131C727.529 730.423 727.88 730.981 727.88 731.623H729.453C729.453 730.392 728.776 729.319 727.776 728.759L727.008 730.131ZM726.465 728.794L726.439 728.949L727.989 729.215L728.015 729.06L726.465 728.794ZM726.286 724.673C726.639 726.018 726.7 727.423 726.465 728.794L728.015 729.06C728.288 727.468 728.217 725.836 727.807 724.274L726.286 724.673ZM726.217 724.409L726.286 724.673L727.807 724.274L727.737 724.01L726.217 724.409ZM722.272 720.2C724.21 720.84 725.696 722.423 726.217 724.409L727.737 724.01C727.082 721.512 725.212 719.515 722.766 718.707L722.272 720.2ZM718.53 720.195C719.744 719.801 721.064 719.801 722.272 720.2L722.766 718.707C721.236 718.202 719.573 718.203 718.045 718.699L718.53 720.195ZM727.776 728.759C727.919 728.839 728.023 729.012 727.989 729.215L726.439 728.949C726.354 729.444 726.608 729.907 727.008 730.131L727.776 728.759ZM712.683 729.243C712.645 729.023 712.758 728.831 712.921 728.742L713.674 730.123C714.068 729.908 714.315 729.457 714.233 728.977L712.683 729.243ZM719.547 718V719.116H721.12V718H719.547ZM716.922 735.341C719.189 735.595 721.477 735.595 723.744 735.341L723.569 733.778C721.419 734.02 719.248 734.02 717.098 733.778L716.922 735.341ZM724.319 735.385C724.381 735.132 724.422 734.875 724.441 734.616L722.872 734.502C722.86 734.673 722.833 734.843 722.792 735.009L724.319 735.385ZM724.228 735.755L724.319 735.385L722.792 735.009L722.701 735.38L724.228 735.755ZM721.298 738.672C722.743 738.327 723.873 737.2 724.228 735.755L722.701 735.38C722.486 736.256 721.802 736.935 720.933 737.143L721.298 738.672ZM719.368 738.672C720.003 738.824 720.664 738.824 721.298 738.672L720.933 737.143C720.539 737.237 720.128 737.237 719.734 737.143L719.368 738.672ZM716.439 735.755C716.794 737.2 717.923 738.327 719.368 738.672L719.734 737.143C718.865 736.935 718.181 736.256 717.965 735.38L716.439 735.755ZM716.347 735.385L716.439 735.755L717.965 735.38L717.874 735.009L716.347 735.385ZM716.226 734.616C716.245 734.875 716.285 735.132 716.347 735.385L717.874 735.009C717.833 734.843 717.807 734.673 717.794 734.502L716.226 734.616Z" fill="white"/>
<circle cx="725.5" cy="720.5" r="3.5" fill="#FFD65A"/>
<defs>
<filter id="filter0_d_1_69" x="392" y="686" width="386" height="128" filterUnits="userSpaceOnUse" color-interpolation-filters="sRGB">
<feFlood flood-opacity="0" result="BackgroundImageFix"/>
<feColorMatrix in="SourceAlpha" type="matrix" values="0 0 0 0 0 0 0 0 0 0 0 0 0 0 0 0 0 0 127 0" result="hardAlpha"/>
<feOffset dy="12"/>
<feGaussianBlur stdDeviation="12"/>
<feComposite in2="hardAlpha" operator="out"/>
<feColorMatrix type="matrix" values="0 0 0 0 0 0 0 0 0 0 0 0 0 0 0 0 0 0 0.08 0"/>
<feBlend mode="normal" in2="BackgroundImageFix" result="effect1_dropShadow_1_69"/>
<feBlend mode="normal" in="SourceGraphic" in2="effect1_dropShadow_1_69" result="shape"/>
</filter>
</defs>
</svg>
