<svg width="482" height="436" viewBox="0 0 482 436" fill="none" xmlns="http://www.w3.org/2000/svg">
<rect width="482" height="436" rx="20" fill="#212121"/>
<path d="M46.412 47.48V62H44.74V52.87L44.938 49.042H44.916L40.142 62H38.646L33.872 49.042H33.85L34.048 52.87V62H32.376V47.48H35.082L38.272 56.302L39.372 59.932H39.416L40.538 56.324L43.706 47.48H46.412ZM55.2055 50.78C56.2468 50.78 57.1635 51.0073 57.9555 51.462C58.7621 51.9167 59.3928 52.5767 59.8475 53.442C60.3021 54.2927 60.5295 55.312 60.5295 56.5C60.5295 57.688 60.3021 58.7147 59.8475 59.58C59.3928 60.4307 58.7621 61.0833 57.9555 61.538C57.1635 61.9927 56.2468 62.22 55.2055 62.22C54.1788 62.22 53.2621 61.9927 52.4555 61.538C51.6488 61.0833 51.0181 60.4307 50.5635 59.58C50.1088 58.7147 49.8815 57.688 49.8815 56.5C49.8815 55.312 50.1088 54.2927 50.5635 53.442C51.0181 52.5767 51.6488 51.9167 52.4555 51.462C53.2621 51.0073 54.1788 50.78 55.2055 50.78ZM55.2055 52.298C54.4575 52.298 53.8195 52.4667 53.2915 52.804C52.7635 53.1413 52.3528 53.6253 52.0595 54.256C51.7808 54.872 51.6415 55.62 51.6415 56.5C51.6415 57.3653 51.7808 58.1133 52.0595 58.744C52.3528 59.3747 52.7635 59.8587 53.2915 60.196C53.8195 60.5333 54.4575 60.702 55.2055 60.702C55.9535 60.702 56.5915 60.5333 57.1195 60.196C57.6475 59.8587 58.0508 59.3747 58.3295 58.744C58.6228 58.1133 58.7695 57.3653 58.7695 56.5C58.7695 55.62 58.6228 54.872 58.3295 54.256C58.0508 53.6253 57.6475 53.1413 57.1195 52.804C56.5915 52.4667 55.9535 52.298 55.2055 52.298ZM63.8429 62V51H65.3829L65.5369 53.464L65.2509 53.222C65.4855 52.6353 65.8009 52.166 66.1969 51.814C66.5929 51.4473 67.0475 51.1833 67.5609 51.022C68.0889 50.8607 68.6315 50.78 69.1889 50.78C69.9809 50.78 70.6995 50.934 71.3449 51.242C71.9902 51.5353 72.5035 51.99 72.8849 52.606C73.2809 53.222 73.4789 54.0067 73.4789 54.96V62H71.7189V55.576C71.7189 54.3587 71.4549 53.5153 70.9269 53.046C70.4135 52.562 69.7755 52.32 69.0129 52.32C68.4849 52.32 67.9569 52.4447 67.4289 52.694C66.9009 52.9433 66.4609 53.3467 66.1089 53.904C65.7715 54.4613 65.6029 55.2093 65.6029 56.148V62H63.8429ZM79.9096 47.876V58.964C79.9096 59.5067 80.0636 59.91 80.3716 60.174C80.6796 60.438 81.0756 60.57 81.5596 60.57C81.9849 60.57 82.3516 60.4967 82.6596 60.35C82.9676 60.2033 83.2462 60.0053 83.4956 59.756L84.1116 61.23C83.7742 61.538 83.3709 61.78 82.9016 61.956C82.4469 62.132 81.9189 62.22 81.3176 62.22C80.7602 62.22 80.2396 62.1247 79.7556 61.934C79.2716 61.7287 78.8829 61.4133 78.5896 60.988C78.3109 60.548 78.1642 59.976 78.1496 59.272V48.36L79.9096 47.876ZM83.9136 51V52.518H75.9496V51H83.9136ZM86.5304 62V45.94H88.2904V52.65C88.6717 51.99 89.1777 51.5133 89.8084 51.22C90.439 50.9267 91.1284 50.78 91.8764 50.78C92.6684 50.78 93.387 50.934 94.0324 51.242C94.6777 51.5353 95.191 51.99 95.5724 52.606C95.9684 53.222 96.1664 54.0067 96.1664 54.96V62H94.4064V55.576C94.4064 54.3587 94.1424 53.5153 93.6144 53.046C93.101 52.562 92.463 52.32 91.7004 52.32C91.1724 52.32 90.6444 52.4447 90.1164 52.694C89.5884 52.9433 89.1484 53.354 88.7964 53.926C88.459 54.4833 88.2904 55.2313 88.2904 56.17V62H86.5304ZM101.823 45.94V59.206C101.823 59.7633 101.926 60.152 102.131 60.372C102.337 60.5773 102.667 60.68 103.121 60.68C103.415 60.68 103.657 60.658 103.847 60.614C104.038 60.57 104.295 60.4893 104.617 60.372L104.331 61.912C104.097 62.0147 103.84 62.088 103.561 62.132C103.283 62.1907 102.997 62.22 102.703 62.22C101.809 62.22 101.141 61.978 100.701 61.494C100.276 61.01 100.063 60.2693 100.063 59.272V45.94H101.823ZM115.359 51L110.189 63.848C109.911 64.5667 109.603 65.1313 109.265 65.542C108.943 65.9673 108.576 66.268 108.165 66.444C107.769 66.6347 107.307 66.73 106.779 66.73C106.281 66.73 105.819 66.6567 105.393 66.51C104.983 66.378 104.616 66.1947 104.293 65.96L104.777 64.42C105.071 64.684 105.379 64.8747 105.701 64.992C106.039 65.124 106.369 65.19 106.691 65.19C107.073 65.19 107.432 65.0727 107.769 64.838C108.107 64.6033 108.415 64.1267 108.693 63.408L109.265 61.978L108.165 59.36L104.667 51H106.669L109.419 58.172L110.101 60.13L110.893 57.952L113.467 51H115.359ZM129.595 47.26C130.871 47.26 131.971 47.524 132.895 48.052C133.819 48.5653 134.589 49.328 135.205 50.34L133.731 51.484C133.188 50.5453 132.572 49.8853 131.883 49.504C131.208 49.108 130.387 48.91 129.419 48.91C128.641 48.91 127.996 49.02 127.483 49.24C126.984 49.46 126.617 49.7533 126.383 50.12C126.148 50.472 126.031 50.8753 126.031 51.33C126.031 51.8433 126.192 52.298 126.515 52.694C126.837 53.0753 127.483 53.376 128.451 53.596L131.597 54.3C132.99 54.608 133.958 55.0773 134.501 55.708C135.058 56.324 135.337 57.094 135.337 58.018C135.337 58.8393 135.102 59.5727 134.633 60.218C134.178 60.8487 133.533 61.34 132.697 61.692C131.861 62.044 130.878 62.22 129.749 62.22C128.693 62.22 127.761 62.0807 126.955 61.802C126.163 61.5087 125.481 61.12 124.909 60.636C124.337 60.152 123.867 59.6093 123.501 59.008L125.041 57.754C125.319 58.3113 125.679 58.8027 126.119 59.228C126.559 59.6533 127.087 59.9833 127.703 60.218C128.333 60.4527 129.052 60.57 129.859 60.57C130.607 60.57 131.252 60.482 131.795 60.306C132.352 60.1153 132.777 59.844 133.071 59.492C133.364 59.1253 133.511 58.6853 133.511 58.172C133.511 57.7027 133.357 57.2847 133.049 56.918C132.741 56.5367 132.161 56.2507 131.311 56.06L127.901 55.29C127.006 55.0847 126.28 54.806 125.723 54.454C125.18 54.0873 124.784 53.662 124.535 53.178C124.3 52.6793 124.183 52.144 124.183 51.572C124.183 50.7947 124.395 50.0833 124.821 49.438C125.261 48.778 125.884 48.25 126.691 47.854C127.512 47.458 128.48 47.26 129.595 47.26ZM141.29 47.876V58.964C141.29 59.5067 141.444 59.91 141.752 60.174C142.06 60.438 142.456 60.57 142.94 60.57C143.366 60.57 143.732 60.4967 144.04 60.35C144.348 60.2033 144.627 60.0053 144.876 59.756L145.492 61.23C145.155 61.538 144.752 61.78 144.282 61.956C143.828 62.132 143.3 62.22 142.698 62.22C142.141 62.22 141.62 62.1247 141.136 61.934C140.652 61.7287 140.264 61.4133 139.97 60.988C139.692 60.548 139.545 59.976 139.53 59.272V48.36L141.29 47.876ZM145.294 51V52.518H137.33V51H145.294ZM154.335 54.894C154.335 54.0727 154.115 53.442 153.675 53.002C153.235 52.5473 152.612 52.32 151.805 52.32C151.043 52.32 150.397 52.4887 149.869 52.826C149.341 53.1487 148.953 53.6767 148.703 54.41L147.273 53.53C147.567 52.7087 148.109 52.0487 148.901 51.55C149.693 51.0367 150.676 50.78 151.849 50.78C152.641 50.78 153.36 50.9193 154.005 51.198C154.651 51.462 155.157 51.8727 155.523 52.43C155.905 52.9727 156.095 53.6767 156.095 54.542V59.866C156.095 60.394 156.374 60.658 156.931 60.658C157.21 60.658 157.481 60.6213 157.745 60.548L157.657 61.934C157.364 62.0807 156.983 62.154 156.513 62.154C156.088 62.154 155.707 62.0733 155.369 61.912C155.032 61.7507 154.768 61.5087 154.577 61.186C154.387 60.8487 154.291 60.4307 154.291 59.932V59.712L154.731 59.778C154.555 60.35 154.255 60.8193 153.829 61.186C153.404 61.538 152.927 61.802 152.399 61.978C151.871 62.1393 151.351 62.22 150.837 62.22C150.192 62.22 149.591 62.11 149.033 61.89C148.476 61.67 148.029 61.34 147.691 60.9C147.369 60.4453 147.207 59.888 147.207 59.228C147.207 58.4067 147.479 57.732 148.021 57.204C148.579 56.6613 149.349 56.2947 150.331 56.104L154.687 55.246V56.698L151.145 57.424C150.427 57.5707 149.891 57.776 149.539 58.04C149.187 58.304 149.011 58.6707 149.011 59.14C149.011 59.5947 149.187 59.9687 149.539 60.262C149.906 60.5407 150.419 60.68 151.079 60.68C151.505 60.68 151.908 60.6287 152.289 60.526C152.685 60.4087 153.037 60.24 153.345 60.02C153.653 59.7853 153.895 59.4993 154.071 59.162C154.247 58.81 154.335 58.3993 154.335 57.93V54.894ZM162.538 47.876V58.964C162.538 59.5067 162.692 59.91 163 60.174C163.308 60.438 163.704 60.57 164.188 60.57C164.614 60.57 164.98 60.4967 165.288 60.35C165.596 60.2033 165.875 60.0053 166.124 59.756L166.74 61.23C166.403 61.538 166 61.78 165.53 61.956C165.076 62.132 164.548 62.22 163.946 62.22C163.389 62.22 162.868 62.1247 162.384 61.934C161.9 61.7287 161.512 61.4133 161.218 60.988C160.94 60.548 160.793 59.976 160.778 59.272V48.36L162.538 47.876ZM166.542 51V52.518H158.578V51H166.542ZM170.039 48.888C169.643 48.888 169.321 48.7707 169.071 48.536C168.837 48.2867 168.719 47.964 168.719 47.568C168.719 47.172 168.837 46.8567 169.071 46.622C169.321 46.3727 169.643 46.248 170.039 46.248C170.435 46.248 170.751 46.3727 170.985 46.622C171.235 46.8567 171.359 47.172 171.359 47.568C171.359 47.964 171.235 48.2867 170.985 48.536C170.751 48.7707 170.435 48.888 170.039 48.888ZM170.919 51V62H169.159V51H170.919ZM178.963 62.22C177.892 62.22 176.902 61.9927 175.993 61.538C175.098 61.0833 174.409 60.438 173.925 59.602L175.421 58.524C175.744 59.1987 176.213 59.7267 176.829 60.108C177.46 60.4893 178.215 60.68 179.095 60.68C179.872 60.68 180.481 60.5333 180.921 60.24C181.361 59.932 181.581 59.536 181.581 59.052C181.581 58.744 181.478 58.4653 181.273 58.216C181.082 57.952 180.708 57.7613 180.151 57.644L177.511 57.094C176.44 56.874 175.67 56.5073 175.201 55.994C174.746 55.4807 174.519 54.8427 174.519 54.08C174.519 53.4787 174.688 52.9287 175.025 52.43C175.377 51.9313 175.868 51.5353 176.499 51.242C177.144 50.934 177.9 50.78 178.765 50.78C179.85 50.78 180.767 50.9927 181.515 51.418C182.263 51.8433 182.82 52.4447 183.187 53.222L181.713 54.19C181.464 53.5447 181.06 53.0753 180.503 52.782C179.946 52.474 179.366 52.32 178.765 52.32C178.237 52.32 177.782 52.3933 177.401 52.54C177.034 52.6867 176.748 52.892 176.543 53.156C176.352 53.4053 176.257 53.6913 176.257 54.014C176.257 54.3367 176.367 54.6373 176.587 54.916C176.807 55.18 177.218 55.3707 177.819 55.488L180.569 56.06C181.596 56.2653 182.314 56.6027 182.725 57.072C183.136 57.5413 183.341 58.1133 183.341 58.788C183.341 59.4773 183.158 60.086 182.791 60.614C182.424 61.1273 181.911 61.5233 181.251 61.802C180.591 62.0807 179.828 62.22 178.963 62.22ZM189.201 47.876V58.964C189.201 59.5067 189.355 59.91 189.663 60.174C189.971 60.438 190.367 60.57 190.851 60.57C191.276 60.57 191.643 60.4967 191.951 60.35C192.259 60.2033 192.537 60.0053 192.787 59.756L193.403 61.23C193.065 61.538 192.662 61.78 192.193 61.956C191.738 62.132 191.21 62.22 190.609 62.22C190.051 62.22 189.531 62.1247 189.047 61.934C188.563 61.7287 188.174 61.4133 187.881 60.988C187.602 60.548 187.455 59.976 187.441 59.272V48.36L189.201 47.876ZM193.205 51V52.518H185.241V51H193.205ZM196.701 48.888C196.305 48.888 195.983 48.7707 195.733 48.536C195.499 48.2867 195.381 47.964 195.381 47.568C195.381 47.172 195.499 46.8567 195.733 46.622C195.983 46.3727 196.305 46.248 196.701 46.248C197.097 46.248 197.413 46.3727 197.647 46.622C197.897 46.8567 198.021 47.172 198.021 47.568C198.021 47.964 197.897 48.2867 197.647 48.536C197.413 48.7707 197.097 48.888 196.701 48.888ZM197.581 51V62H195.821V51H197.581ZM206.219 50.78C206.982 50.78 207.649 50.8973 208.221 51.132C208.808 51.3667 209.314 51.704 209.739 52.144C210.164 52.584 210.509 53.1047 210.773 53.706L209.101 54.498C208.866 53.794 208.507 53.2587 208.023 52.892C207.554 52.5107 206.938 52.32 206.175 52.32C205.442 52.32 204.811 52.4887 204.283 52.826C203.755 53.1487 203.352 53.6253 203.073 54.256C202.794 54.872 202.655 55.62 202.655 56.5C202.655 57.3653 202.794 58.1133 203.073 58.744C203.352 59.3747 203.755 59.8587 204.283 60.196C204.811 60.5187 205.442 60.68 206.175 60.68C206.747 60.68 207.238 60.592 207.649 60.416C208.074 60.24 208.419 59.9833 208.683 59.646C208.962 59.3087 209.152 58.898 209.255 58.414L210.883 58.986C210.634 59.6607 210.289 60.24 209.849 60.724C209.424 61.208 208.903 61.582 208.287 61.846C207.686 62.0953 206.996 62.22 206.219 62.22C205.192 62.22 204.276 61.9927 203.469 61.538C202.662 61.0833 202.032 60.4307 201.577 59.58C201.122 58.7147 200.895 57.688 200.895 56.5C200.895 55.312 201.122 54.2927 201.577 53.442C202.032 52.5767 202.662 51.9167 203.469 51.462C204.276 51.0073 205.192 50.78 206.219 50.78Z" fill="#F7F9FC"/>
<path d="M44.08 113.956C42.0853 113.956 40.2813 113.707 38.668 113.208C37.084 112.68 35.6907 111.976 34.488 111.096C33.3147 110.216 32.3467 109.204 31.584 108.06L34.708 104.892C35.324 105.919 36.1013 106.828 37.04 107.62C37.9787 108.383 39.064 108.984 40.296 109.424C41.528 109.864 42.8773 110.084 44.344 110.084C46.3387 110.084 47.908 109.747 49.052 109.072C50.2253 108.368 50.812 107.327 50.812 105.948C50.812 105.156 50.5187 104.452 49.932 103.836C49.3453 103.191 48.2893 102.692 46.764 102.34L40.34 100.844C38.6387 100.463 37.2307 99.9347 36.116 99.26C35.0307 98.5853 34.224 97.764 33.696 96.796C33.168 95.7987 32.904 94.7133 32.904 93.54C32.904 91.9267 33.3293 90.4747 34.18 89.184C35.06 87.8933 36.3213 86.8667 37.964 86.104C39.6067 85.312 41.5867 84.916 43.904 84.916C46.3973 84.916 48.5827 85.3853 50.46 86.324C52.3373 87.2627 53.892 88.6707 55.124 90.548L52.132 93.452C51.0467 91.78 49.8147 90.5773 48.436 89.844C47.0573 89.1107 45.4147 88.744 43.508 88.744C42.1 88.744 40.9413 88.9347 40.032 89.316C39.152 89.668 38.492 90.1667 38.052 90.812C37.612 91.428 37.392 92.1173 37.392 92.88C37.392 93.496 37.5093 94.0533 37.744 94.552C38.008 95.0507 38.4773 95.4907 39.152 95.872C39.8267 96.2533 40.78 96.576 42.012 96.84L47.732 98.116C50.46 98.732 52.396 99.6413 53.54 100.844C54.684 102.047 55.256 103.587 55.256 105.464C55.256 107.195 54.7867 108.705 53.848 109.996C52.9093 111.257 51.604 112.24 49.932 112.944C48.26 113.619 46.3093 113.956 44.08 113.956ZM42.232 118.224V80.736H45.752V118.224H42.232ZM60.7089 114V110.568C63.4956 108.573 65.8276 106.813 67.7049 105.288C69.6116 103.763 71.1369 102.355 72.2809 101.064C73.4249 99.7733 74.2462 98.556 74.7449 97.412C75.2729 96.2387 75.5369 95.0507 75.5369 93.848C75.5369 92.2933 75.0529 91.032 74.0849 90.064C73.1169 89.096 71.7676 88.612 70.0369 88.612C68.2182 88.612 66.7662 89.228 65.6809 90.46C64.6249 91.6627 64.0236 93.32 63.8769 95.432L59.7849 93.54C59.9902 91.692 60.5329 90.0933 61.4129 88.744C62.2929 87.3947 63.4809 86.3533 64.9769 85.62C66.5022 84.8867 68.2622 84.52 70.2569 84.52C71.8996 84.52 73.3369 84.7547 74.5689 85.224C75.8302 85.6933 76.8862 86.3533 77.7369 87.204C78.5876 88.0253 79.2329 88.9933 79.6729 90.108C80.1422 91.2227 80.3769 92.4107 80.3769 93.672C80.3769 95.52 79.9222 97.3093 79.0129 99.04C78.1036 100.741 76.6662 102.487 74.7009 104.276C72.7356 106.065 70.1542 107.987 66.9569 110.04V110.128C67.3089 110.069 67.7929 110.04 68.4089 110.04C69.0249 110.011 69.6409 109.996 70.2569 109.996C70.8729 109.967 71.3716 109.952 71.7529 109.952H80.9049V114H60.7089ZM98.4829 114V106.74H84.3149V103.528C84.3736 103.381 84.4616 103.205 84.5789 103C84.7256 102.795 84.8869 102.56 85.0629 102.296L97.1629 84.96H102.927V103.088H107.855V106.74H102.927V114H98.4829ZM88.7149 103.088H98.4829V92.836C98.4829 92.132 98.4976 91.4133 98.5269 90.68C98.5856 89.9173 98.6296 89.1693 98.6589 88.436H98.5709C98.2482 89.14 97.8229 89.9173 97.2949 90.768C96.7962 91.5893 96.3269 92.308 95.8869 92.924L89.0229 102.692C88.9642 102.751 88.9056 102.809 88.8469 102.868C88.8176 102.927 88.7736 103 88.7149 103.088ZM115.347 108.06C116.169 108.06 116.843 108.265 117.371 108.676C117.929 109.057 118.354 109.6 118.647 110.304C118.941 110.979 119.087 111.756 119.087 112.636C119.087 113.721 118.882 114.763 118.471 115.76C118.061 116.787 117.459 117.711 116.667 118.532C115.905 119.383 114.981 120.072 113.895 120.6L111.695 118.708C112.487 118.415 113.191 118.033 113.807 117.564C114.423 117.095 114.937 116.567 115.347 115.98C115.787 115.393 116.095 114.792 116.271 114.176L116.095 114.088C115.949 114.176 115.773 114.249 115.567 114.308C115.391 114.367 115.127 114.396 114.775 114.396C114.365 114.396 113.939 114.279 113.499 114.044C113.089 113.839 112.737 113.516 112.443 113.076C112.15 112.636 112.003 112.064 112.003 111.36C112.003 110.715 112.15 110.143 112.443 109.644C112.766 109.145 113.177 108.764 113.675 108.5C114.174 108.207 114.731 108.06 115.347 108.06ZM134.308 114.44C130.818 114.44 128.075 113.179 126.08 110.656C124.115 108.104 123.132 104.379 123.132 99.48C123.132 94.5813 124.115 90.8707 126.08 88.348C128.075 85.796 130.818 84.52 134.308 84.52C137.828 84.52 140.571 85.796 142.536 88.348C144.531 90.8707 145.528 94.5813 145.528 99.48C145.528 104.379 144.531 108.104 142.536 110.656C140.571 113.179 137.828 114.44 134.308 114.44ZM134.308 110.436C135.716 110.436 136.89 110.04 137.828 109.248C138.796 108.427 139.515 107.209 139.984 105.596C140.483 103.953 140.732 101.915 140.732 99.48C140.732 97.0453 140.483 95.0213 139.984 93.408C139.515 91.7653 138.796 90.548 137.828 89.756C136.89 88.9347 135.716 88.524 134.308 88.524C132.9 88.524 131.712 88.9347 130.744 89.756C129.806 90.548 129.102 91.7653 128.632 93.408C128.163 95.0213 127.928 97.0453 127.928 99.48C127.928 101.915 128.163 103.953 128.632 105.596C129.102 107.209 129.806 108.427 130.744 109.248C131.712 110.04 132.9 110.436 134.308 110.436ZM161.937 114.44C158.446 114.44 155.704 113.179 153.709 110.656C151.744 108.104 150.761 104.379 150.761 99.48C150.761 94.5813 151.744 90.8707 153.709 88.348C155.704 85.796 158.446 84.52 161.937 84.52C165.457 84.52 168.2 85.796 170.165 88.348C172.16 90.8707 173.157 94.5813 173.157 99.48C173.157 104.379 172.16 108.104 170.165 110.656C168.2 113.179 165.457 114.44 161.937 114.44ZM161.937 110.436C163.345 110.436 164.518 110.04 165.457 109.248C166.425 108.427 167.144 107.209 167.613 105.596C168.112 103.953 168.361 101.915 168.361 99.48C168.361 97.0453 168.112 95.0213 167.613 93.408C167.144 91.7653 166.425 90.548 165.457 89.756C164.518 88.9347 163.345 88.524 161.937 88.524C160.529 88.524 159.341 88.9347 158.373 89.756C157.434 90.548 156.73 91.7653 156.261 93.408C155.792 95.0213 155.557 97.0453 155.557 99.48C155.557 101.915 155.792 103.953 156.261 105.596C156.73 107.209 157.434 108.427 158.373 109.248C159.341 110.04 160.529 110.436 161.937 110.436ZM189.566 114.44C186.075 114.44 183.333 113.179 181.338 110.656C179.373 108.104 178.39 104.379 178.39 99.48C178.39 94.5813 179.373 90.8707 181.338 88.348C183.333 85.796 186.075 84.52 189.566 84.52C193.086 84.52 195.829 85.796 197.794 88.348C199.789 90.8707 200.786 94.5813 200.786 99.48C200.786 104.379 199.789 108.104 197.794 110.656C195.829 113.179 193.086 114.44 189.566 114.44ZM189.566 110.436C190.974 110.436 192.147 110.04 193.086 109.248C194.054 108.427 194.773 107.209 195.242 105.596C195.741 103.953 195.99 101.915 195.99 99.48C195.99 97.0453 195.741 95.0213 195.242 93.408C194.773 91.7653 194.054 90.548 193.086 89.756C192.147 88.9347 190.974 88.524 189.566 88.524C188.158 88.524 186.97 88.9347 186.002 89.756C185.063 90.548 184.359 91.7653 183.89 93.408C183.421 95.0213 183.186 97.0453 183.186 99.48C183.186 101.915 183.421 103.953 183.89 105.596C184.359 107.209 185.063 108.427 186.002 109.248C186.97 110.04 188.158 110.436 189.566 110.436Z" fill="#F7F9FC"/>
<path d="M433.365 180V173.224C433.365 173.065 433.365 172.897 433.365 172.72C433.374 172.533 433.384 172.342 433.393 172.146C433.076 172.454 432.707 172.725 432.287 172.958C431.867 173.182 431.438 173.345 430.999 173.448L430.705 172.426C430.873 172.407 431.083 172.347 431.335 172.244C431.596 172.132 431.867 171.997 432.147 171.838C432.436 171.67 432.702 171.493 432.945 171.306C433.188 171.119 433.374 170.937 433.505 170.76H434.485V180H433.365ZM439.926 180.14C439.105 180.14 438.442 179.953 437.938 179.58C437.444 179.207 437.061 178.689 436.79 178.026L437.882 177.452C438.032 177.937 438.26 178.334 438.568 178.642C438.886 178.941 439.348 179.09 439.954 179.09C440.384 179.09 440.748 179.011 441.046 178.852C441.354 178.693 441.592 178.469 441.76 178.18C441.928 177.881 442.012 177.527 442.012 177.116C442.012 176.677 441.933 176.313 441.774 176.024C441.625 175.725 441.406 175.501 441.116 175.352C440.827 175.203 440.472 175.128 440.052 175.128C439.754 175.128 439.474 175.161 439.212 175.226C438.96 175.282 438.732 175.375 438.526 175.506C438.321 175.637 438.144 175.809 437.994 176.024L437.014 175.842L437.56 170.76H442.754V171.81H438.512L438.148 174.722L438.12 174.848H438.148C438.372 174.615 438.657 174.428 439.002 174.288C439.357 174.148 439.777 174.078 440.262 174.078C440.85 174.078 441.359 174.204 441.788 174.456C442.227 174.699 442.568 175.044 442.81 175.492C443.053 175.94 443.174 176.463 443.174 177.06C443.174 177.536 443.095 177.965 442.936 178.348C442.778 178.731 442.554 179.057 442.264 179.328C441.975 179.589 441.63 179.79 441.228 179.93C440.836 180.07 440.402 180.14 439.926 180.14ZM451.505 173L448.481 176.024L448.215 176.29L445.919 178.586V177.186L450.091 173H451.505ZM446.479 169.78V180H445.359V169.78H446.479ZM448.579 175.45L451.673 180H450.315L447.641 176.08L448.579 175.45ZM432.805 250V243.224C432.805 243.065 432.805 242.897 432.805 242.72C432.814 242.533 432.823 242.342 432.833 242.146C432.515 242.454 432.147 242.725 431.727 242.958C431.307 243.182 430.877 243.345 430.439 243.448L430.145 242.426C430.313 242.407 430.523 242.347 430.775 242.244C431.036 242.132 431.307 241.997 431.587 241.838C431.876 241.67 432.142 241.493 432.385 241.306C432.627 241.119 432.814 240.937 432.945 240.76H433.925V250H432.805ZM439.702 250.14C438.656 250.14 437.821 249.734 437.196 248.922C436.57 248.11 436.258 246.929 436.258 245.38C436.258 243.831 436.57 242.65 437.196 241.838C437.821 241.026 438.656 240.62 439.702 240.62C440.756 240.62 441.592 241.026 442.208 241.838C442.833 242.65 443.146 243.831 443.146 245.38C443.146 246.929 442.833 248.11 442.208 248.922C441.592 249.734 440.756 250.14 439.702 250.14ZM439.702 249.132C440.196 249.132 440.612 248.992 440.948 248.712C441.293 248.423 441.55 247.998 441.718 247.438C441.895 246.878 441.984 246.192 441.984 245.38C441.984 244.568 441.895 243.882 441.718 243.322C441.55 242.762 441.293 242.342 440.948 242.062C440.612 241.773 440.196 241.628 439.702 241.628C439.207 241.628 438.787 241.773 438.442 242.062C438.106 242.342 437.849 242.762 437.672 243.322C437.504 243.882 437.42 244.568 437.42 245.38C437.42 246.192 437.504 246.878 437.672 247.438C437.849 247.998 438.106 248.423 438.442 248.712C438.787 248.992 439.207 249.132 439.702 249.132ZM451.505 243L448.481 246.024L448.215 246.29L445.919 248.586V247.186L450.091 243H451.505ZM446.479 239.78V250H445.359V239.78H446.479ZM448.579 245.45L451.673 250H450.315L447.641 246.08L448.579 245.45ZM439.926 320.14C439.105 320.14 438.442 319.953 437.938 319.58C437.444 319.207 437.061 318.689 436.79 318.026L437.882 317.452C438.032 317.937 438.26 318.334 438.568 318.642C438.886 318.941 439.348 319.09 439.954 319.09C440.384 319.09 440.748 319.011 441.046 318.852C441.354 318.693 441.592 318.469 441.76 318.18C441.928 317.881 442.012 317.527 442.012 317.116C442.012 316.677 441.933 316.313 441.774 316.024C441.625 315.725 441.406 315.501 441.116 315.352C440.827 315.203 440.472 315.128 440.052 315.128C439.754 315.128 439.474 315.161 439.212 315.226C438.96 315.282 438.732 315.375 438.526 315.506C438.321 315.637 438.144 315.809 437.994 316.024L437.014 315.842L437.56 310.76H442.754V311.81H438.512L438.148 314.722L438.12 314.848H438.148C438.372 314.615 438.657 314.428 439.002 314.288C439.357 314.148 439.777 314.078 440.262 314.078C440.85 314.078 441.359 314.204 441.788 314.456C442.227 314.699 442.568 315.044 442.81 315.492C443.053 315.94 443.174 316.463 443.174 317.06C443.174 317.536 443.095 317.965 442.936 318.348C442.778 318.731 442.554 319.057 442.264 319.328C441.975 319.589 441.63 319.79 441.228 319.93C440.836 320.07 440.402 320.14 439.926 320.14ZM451.505 313L448.481 316.024L448.215 316.29L445.919 318.586V317.186L450.091 313H451.505ZM446.479 309.78V320H445.359V309.78H446.479ZM448.579 315.45L451.673 320H450.315L447.641 316.08L448.579 315.45ZM447.645 390.14C446.6 390.14 445.764 389.734 445.139 388.922C444.514 388.11 444.201 386.929 444.201 385.38C444.201 383.831 444.514 382.65 445.139 381.838C445.764 381.026 446.6 380.62 447.645 380.62C448.7 380.62 449.535 381.026 450.151 381.838C450.776 382.65 451.089 383.831 451.089 385.38C451.089 386.929 450.776 388.11 450.151 388.922C449.535 389.734 448.7 390.14 447.645 390.14ZM447.645 389.132C448.14 389.132 448.555 388.992 448.891 388.712C449.236 388.423 449.493 387.998 449.661 387.438C449.838 386.878 449.927 386.192 449.927 385.38C449.927 384.568 449.838 383.882 449.661 383.322C449.493 382.762 449.236 382.342 448.891 382.062C448.555 381.773 448.14 381.628 447.645 381.628C447.15 381.628 446.73 381.773 446.385 382.062C446.049 382.342 445.792 382.762 445.615 383.322C445.447 383.882 445.363 384.568 445.363 385.38C445.363 386.192 445.447 386.878 445.615 387.438C445.792 387.998 446.049 388.423 446.385 388.712C446.73 388.992 447.15 389.132 447.645 389.132Z" fill="white"/>
<line x1="454" y1="183.5" x2="30" y2="183.5" stroke="#373737"/>
<line x1="454" y1="252.5" x2="30" y2="252.5" stroke="#373737"/>
<line x1="454" y1="321.5" x2="30" y2="321.5" stroke="#373737"/>
<line x1="454" y1="390.5" x2="30" y2="390.5" stroke="#373737"/>
<rect x="30" y="299" width="17" height="91" rx="8.5" fill="#EDF860"/>
<rect x="78" y="238" width="17" height="152" rx="8.5" fill="#EDF860"/>
<rect x="126" y="180" width="17" height="210" rx="8.5" fill="#936EFE"/>
<rect x="271" y="192" width="17" height="198" rx="8.5" fill="#EDF860"/>
<rect x="174" y="238" width="18" height="152" rx="9" fill="#EDF860"/>
<rect x="223" y="308" width="17" height="82" rx="8.5" fill="#EDF860"/>
<rect x="319" y="308" width="17" height="82" rx="8.5" fill="#EDF860"/>
</svg>
